<svg xmlns="http://www.w3.org/2000/svg" width="390.319" height="90" viewBox="0 0 390.319 90" fill="none" version="1.1">
  <g width="624.511" height="144" rx="0" ry="0" style="fill: rgb(0, 0, 0);">
    <g style="opacity: 0; display: none;">
      <g>
        <rect rx="0" ry="0" x="0" y="0" transform="matrix(1.000000, 0.000000, 0.000000, 1.000000, 0.000000, 0.000000)" width="390.31937500000004" height="90" style="fill: rgb(255, 255, 255); fill-opacity: 0;" />
      </g>
    </g>
    <g width="128" height="128" rx="0" ry="0" style="fill: rgb(0, 0, 0);">
      <g width="128" height="128" rx="0" ry="0" style="fill: rgb(0, 0, 0);">
        <g style="display: none;">
          <g>
            <rect width="72" height="72" x="8" transform="matrix(1.000000, 0.000000, 0.000000, 1.000000, 0.000000, 0.000000)" style="fill: none;" ry="0" fill="none" rx="0" y="8" />
          </g>
        </g>
        <g>
          <g>
            <path d="M19.25,10.25L32.75,10.25L32.75,14.75L37.25,14.75L37.25,26L50.75,26L50.75,14.75L55.25,14.75L55.25,10.25L68.75,10.25L68.75,14.75L73.25,14.75L73.25,30.5L77.75,30.5L77.75,64.25L75.5,64.25L75.5,68.75L71,68.75L71,73.25L66.5,73.25L66.5,75.5L21.5,75.5L21.5,73.25L17,73.25L17,68.75L12.5,68.75L12.5,64.25L10.25,64.25L10.25,30.5L14.75,30.5L14.75,14.75L19.25,14.75Z" style="fill: rgb(214, 93, 150);" />
          </g>
        </g>
        <g>
          <g>
            <path d="M19.25,14.75L32.75,14.75L32.75,19.25L35,19.25L35,28.25L53,28.25L53,19.25L55.25,19.25L55.25,14.75L68.75,14.75L68.75,19.25L71,19.25L71,30.5L73.25,30.5L73.25,62L71,62L71,66.5L66.5,66.5L66.5,71L21.5,71L21.5,66.5L17,66.5L17,62L14.75,62L14.75,30.5L17,30.5L17,19.25L19.25,19.25Z" style="fill: rgb(255, 173, 207);" />
          </g>
        </g>
        <g>
          <g>
            <rect rx="0" ry="0" x="19.25" y="14.75" transform="matrix(1.000000, 0.000000, 0.000000, 1.000000, 0.000000, 0.000000)" width="11.25" height="3.375" style="fill: rgb(255, 228, 238);" />
          </g>
        </g>
        <g>
          <g>
            <rect rx="0" ry="0" x="57.5" y="14.75" transform="matrix(1.000000, 0.000000, 0.000000, 1.000000, 0.000000, 0.000000)" width="11.25" height="3.375" style="fill: rgb(255, 228, 238);" />
          </g>
        </g>
        <g>
          <g>
            <rect rx="0" ry="0" x="17" y="18.125" transform="matrix(1.000000, 0.000000, 0.000000, 1.000000, 0.000000, 0.000000)" width="3.375" height="10.125" style="fill: rgb(255, 228, 238);" />
          </g>
        </g>
        <g>
          <g>
            <rect rx="0" ry="0" x="30.5" y="18.125" transform="matrix(1.000000, 0.000000, 0.000000, 1.000000, 0.000000, 0.000000)" width="3.375" height="10.125" style="fill: rgb(255, 228, 238);" />
          </g>
        </g>
        <g>
          <g>
            <rect rx="0" ry="0" x="54.125" y="18.125" transform="matrix(1.000000, 0.000000, 0.000000, 1.000000, 0.000000, 0.000000)" width="3.375" height="10.125" style="fill: rgb(255, 228, 238);" />
          </g>
        </g>
        <g>
          <g>
            <rect rx="0" ry="0" x="67.625" y="18.125" transform="matrix(1.000000, 0.000000, 0.000000, 1.000000, 0.000000, 0.000000)" width="3.375" height="10.125" style="fill: rgb(255, 228, 238);" />
          </g>
        </g>
        <g>
          <g>
            <rect rx="0" ry="0" x="21.5" y="19.25" transform="matrix(1.000000, 0.000000, 0.000000, 1.000000, 0.000000, 0.000000)" width="7.875" height="9" style="fill: rgb(232, 114, 166);" />
          </g>
        </g>
        <g>
          <g>
            <rect rx="0" ry="0" x="58.625" y="19.25" transform="matrix(1.000000, 0.000000, 0.000000, 1.000000, 0.000000, 0.000000)" width="7.875" height="9" style="fill: rgb(232, 114, 166);" />
          </g>
        </g>
        <g>
          <g>
            <rect rx="0" ry="0" x="35" y="28.25" transform="matrix(1.000000, 0.000000, 0.000000, 1.000000, 0.000000, 0.000000)" width="18" height="3.375" style="fill: rgb(255, 228, 238);" />
          </g>
        </g>
        <g>
          <g>
            <rect rx="0" ry="0" x="14.75" y="30.5" transform="matrix(1.000000, 0.000000, 0.000000, 1.000000, 0.000000, 0.000000)" width="6.75" height="3.375" style="fill: rgb(255, 228, 238);" />
          </g>
        </g>
        <g>
          <g>
            <rect rx="0" ry="0" x="14.75" y="33.875" transform="matrix(1.000000, 0.000000, 0.000000, 1.000000, 0.000000, 0.000000)" width="3.375" height="5.625" style="fill: rgb(255, 228, 238);" />
          </g>
        </g>
        <g>
          <g>
            <path d="M14.75,62L19.25,62L19.25,66.5L23.75,66.5L23.75,68.75L64.25,68.75L64.25,66.5L68.75,66.5L68.75,62L73.25,62L73.25,64.25L71,64.25L71,68.75L66.5,68.75L66.5,71L21.5,71L21.5,68.75L17,68.75L17,64.25L14.75,64.25Z" style="fill: rgb(241, 139, 184);" />
          </g>
        </g>
        <g>
          <g>
            <rect rx="0" ry="0" x="21.5" y="73.25" transform="matrix(1.000000, 0.000000, 0.000000, 1.000000, 0.000000, 0.000000)" width="45" height="2.25" style="fill: rgb(185, 71, 128);" />
          </g>
        </g>
        <g>
          <g>
            <rect rx="0" ry="0" x="23.75" y="39.5" transform="matrix(1.000000, 0.000000, 0.000000, 1.000000, 0.000000, 0.000000)" width="10.125" height="12.375" style="fill: rgb(61, 39, 73);" />
          </g>
        </g>
        <g>
          <g>
            <rect rx="0" ry="0" x="54.125" y="39.5" transform="matrix(1.000000, 0.000000, 0.000000, 1.000000, 0.000000, 0.000000)" width="10.125" height="12.375" style="fill: rgb(61, 39, 73);" />
          </g>
        </g>
        <g>
          <g>
            <rect rx="0" ry="0" x="28.25" y="42.875" transform="matrix(1.000000, 0.000000, 0.000000, 1.000000, 0.000000, 0.000000)" width="3.375" height="3.9375" style="fill: rgb(255, 249, 243);" />
          </g>
        </g>
        <g>
          <g>
            <rect rx="0" ry="0" x="56.375" y="42.875" transform="matrix(1.000000, 0.000000, 0.000000, 1.000000, 0.000000, 0.000000)" width="3.375" height="3.9375" style="fill: rgb(255, 249, 243);" />
          </g>
        </g>
        <g>
          <g>
            <rect rx="0" ry="0" x="23.75" y="55.25" transform="matrix(1.000000, 0.000000, 0.000000, 1.000000, 0.000000, 0.000000)" width="6.75" height="4.5" style="fill: rgb(232, 108, 159);" />
          </g>
        </g>
        <g>
          <g>
            <rect rx="0" ry="0" x="57.5" y="55.25" transform="matrix(1.000000, 0.000000, 0.000000, 1.000000, 0.000000, 0.000000)" width="6.75" height="4.5" style="fill: rgb(232, 108, 159);" />
          </g>
        </g>
        <g>
          <g>
            <path d="M38.375,53L49.625,53L49.625,60.875L47.375,60.875L47.375,63.125L40.625,63.125L40.625,60.875L38.375,60.875Z" style="fill: rgb(61, 39, 73);" />
          </g>
        </g>
        <g>
          <g>
            <rect rx="0" ry="0" x="40.625" y="57.5" transform="matrix(1.000000, 0.000000, 0.000000, 1.000000, 0.000000, 0.000000)" width="6.75" height="3.375" style="fill: rgb(232, 114, 166);" />
          </g>
        </g>
      </g>
    </g>
    <g>
      <g transform="matrix(1.000000, 0.000000, 0.000000, 1.000000, 0.000000, 0.000000)" x="104" y="4" width="269" height="52" rx="0" ry="0">
        <g>
          <g fill="rgb(61, 39, 73)" aria-label="Electron" data-font="IBM Plex Sans 600">
            <path d="M132.184 48.7H108.264V12.404H132.184V18.488H115.128V27.328H130.208V33.36H115.128V42.616H132.184Z" />
            <path d="M149.2921 48.7H145.7041Q142.324 48.7 140.686 46.984Q139.048 45.268 139.048 42.148V10.22H145.7041V43.396H149.2921Z" />
            <path d="M165.3081 49.324Q161.3041 49.324 158.4441 47.582Q155.5841 45.84 154.0501 42.642Q152.5161 39.444 152.5161 35.076Q152.5161 30.812 154.0241 27.614Q155.5321 24.416 158.3401 22.674Q161.1481 20.932 165.1001 20.932Q169.3641 20.932 172.0941 22.804Q174.8241 24.676 176.1501 27.77Q177.4761 30.864 177.4761 34.608V36.792H159.4321V37.468Q159.4321 40.38 161.0961 42.2Q162.7601 44.02 166.0361 44.02Q168.4801 44.02 170.0921 42.954Q171.7041 41.888 172.9521 40.328L176.5401 44.332Q174.8761 46.568 171.9901 47.946Q169.1041 49.324 165.3081 49.324ZM165.2041 25.924Q163.4361 25.924 162.1361 26.73Q160.8361 27.536 160.1341 28.966Q159.4321 30.396 159.4321 32.268V32.684H170.5601V32.216Q170.5601 30.292 169.9361 28.914Q169.3121 27.536 168.1161 26.73Q166.9201 25.924 165.2041 25.924Z" />
            <path d="M194.0641 49.324Q188.0321 49.324 184.7821 45.476Q181.5321 41.628 181.5321 35.076Q181.5321 28.576 184.7821 24.754Q188.0321 20.932 194.0641 20.932Q198.1721 20.932 200.8501 22.752Q203.5281 24.572 204.7241 27.796L199.2641 30.24Q198.7961 28.524 197.4961 27.406Q196.1961 26.288 194.0641 26.288Q191.3081 26.288 189.9041 28.03Q188.5001 29.772 188.5001 32.684V37.624Q188.5001 40.432 189.9041 42.2Q191.3081 43.968 194.0641 43.968Q196.4041 43.968 197.7301 42.746Q199.0561 41.524 199.7841 39.704L204.8801 42.148Q203.5801 45.736 200.7981 47.53Q198.0161 49.324 194.0641 49.324Z" />
            <path d="M223.2881 48.7H218.5041Q215.0721 48.7 213.2781 46.906Q211.4841 45.112 211.4841 41.784V26.808H207.4801V21.556H209.5601Q211.0681 21.556 211.6141 20.854Q212.1601 20.152 212.1601 18.748V14.12H218.1401V21.556H223.7041V26.808H218.1401V43.396H223.2881Z" />
            <path d="M236.1322 48.7H229.4762V21.556H236.1322V27.172H236.3922Q236.7562 25.716 237.6142 24.442Q238.4722 23.168 239.9542 22.362Q241.4362 21.556 243.5682 21.556H245.0242V27.848H242.9442Q240.7082 27.848 239.1742 28.29Q237.6402 28.732 236.8862 29.642Q236.1322 30.552 236.1322 32.06Z" />
            <path d="M260.4162 49.324Q256.5682 49.324 253.7342 47.582Q250.9002 45.84 249.3662 42.642Q247.8322 39.444 247.8322 35.076Q247.8322 30.708 249.3662 27.562Q250.9002 24.416 253.7342 22.674Q256.5682 20.932 260.4162 20.932Q264.3162 20.932 267.1502 22.674Q269.9842 24.416 271.5182 27.562Q273.0522 30.708 273.0522 35.076Q273.0522 39.444 271.5182 42.642Q269.9842 45.84 267.1502 47.582Q264.3162 49.324 260.4162 49.324ZM260.4162 43.968Q263.0682 43.968 264.5762 42.33Q266.0842 40.692 266.0842 37.624V32.58Q266.0842 29.512 264.5762 27.9Q263.0682 26.288 260.4162 26.288Q257.8682 26.288 256.3342 27.9Q254.8002 29.512 254.8002 32.58V37.624Q254.8002 40.692 256.3342 42.33Q257.8682 43.968 260.4162 43.968Z" />
            <path d="M285.5842 48.7H278.9282V21.556H285.5842V26.08H285.8442Q286.6762 23.896 288.4702 22.414Q290.2642 20.932 293.4362 20.932Q297.5962 20.932 299.8582 23.714Q302.1202 26.496 302.1202 31.54V48.7H295.4642V32.216Q295.4642 29.356 294.4242 27.874Q293.3842 26.392 290.9922 26.392Q289.6402 26.392 288.3922 26.886Q287.1442 27.38 286.3642 28.342Q285.5842 29.304 285.5842 30.76Z" />
          </g>
        </g>
        <g>
          <g fill="rgb(166, 59, 117)" aria-label="2D" data-font="IBM Plex Sans 600">
            <path d="M334.0496 42.928V48.7H308.8804V42.356L320.269 32.372Q323.1811 29.876 324.5332 27.796Q325.8852 25.716 325.8852 23.324V22.648Q325.8852 20.256 324.3252 18.982Q322.7651 17.708 320.529 17.708Q317.7728 17.708 316.2908 19.294Q314.8087 20.88 314.1847 23.116L308.2564 20.828Q309.0364 18.384 310.6485 16.356Q312.2606 14.328 314.8607 13.054Q317.4608 11.78 321.101 11.78Q324.9492 11.78 327.6273 13.184Q330.3054 14.588 331.7095 17.006Q333.1136 19.424 333.1136 22.596Q333.1136 25.612 331.8915 28.004Q330.6695 30.396 328.5634 32.476Q326.4573 34.556 323.9611 36.636L316.3168 42.928Z" />
            <path d="M341.122 48.7V12.404H354.3306Q359.0628 12.404 362.599 14.432Q366.1352 16.46 368.0593 20.49Q369.9834 24.52 369.9834 30.552Q369.9834 36.584 368.0593 40.614Q366.1352 44.644 362.599 46.672Q359.0628 48.7 354.3306 48.7ZM347.9863 42.616H354.3306Q356.8787 42.616 358.7508 41.602Q360.6229 40.588 361.663 38.534Q362.703 36.48 362.703 33.412V27.692Q362.703 24.572 361.663 22.544Q360.6229 20.516 358.7508 19.502Q356.8787 18.488 354.3306 18.488H347.9863Z" />
          </g>
        </g>
      </g>
    </g>
    <g>
      <g transform="matrix(1.000000, 0.000000, 0.000000, 1.000000, 0.000000, 0.000000)" x="107" y="62" width="262" height="13" rx="0" ry="0">
        <g>
          <g fill="rgb(61, 39, 73)" aria-label="Agent-native cross-platform 2D game engine" data-font="IBM Plex Sans 400">
            <path d="M115.0345 73.425H113.8904L112.9803 70.747H109.3141L108.4041 73.425H107.299L110.4712 64.351H111.8623ZM112.7073 69.785 111.5633 66.496 111.1732 65.365H111.1082L110.7182 66.496L109.5741 69.785Z" />
            <path d="M122.0939 74.166Q122.0939 74.855 121.7298 75.3035Q121.3658 75.752 120.6443 75.9665Q119.9227 76.181 118.8437 76.181Q117.8036 76.181 117.1471 75.986Q116.4905 75.791 116.1915 75.4205Q115.8925 75.05 115.8925 74.53Q115.8925 73.984 116.1785 73.672Q116.4645 73.36 116.9586 73.23V73.087Q116.6725 72.944 116.5165 72.7165Q116.3605 72.489 116.3605 72.151Q116.3605 71.644 116.6855 71.3775Q117.0106 71.111 117.5176 70.981V70.929Q116.9196 70.643 116.588 70.11Q116.2565 69.577 116.2565 68.875Q116.2565 68.186 116.5685 67.666Q116.8806 67.146 117.4526 66.8535Q118.0246 66.561 118.7787 66.561Q119.1427 66.561 119.4612 66.626Q119.7797 66.691 120.0527 66.821V66.704Q120.0527 66.314 120.2347 66.0605Q120.4168 65.807 120.8328 65.807H121.8338V66.717H120.5598V67.146Q120.9238 67.458 121.1253 67.9Q121.3268 68.342 121.3268 68.875Q121.3268 69.551 121.0148 70.0775Q120.7028 70.604 120.1307 70.8965Q119.5587 71.189 118.7917 71.189Q118.6227 71.189 118.4536 71.1695Q118.2846 71.15 118.1416 71.124Q117.8166 71.215 117.5371 71.3905Q117.2576 71.566 117.2576 71.878Q117.2576 72.177 117.5436 72.281Q117.8296 72.385 118.2846 72.385H119.7147Q120.9628 72.385 121.5283 72.8595Q122.0939 73.334 122.0939 74.166ZM121.1188 74.244Q121.1188 73.841 120.8133 73.6005Q120.5078 73.36 119.7277 73.36H117.4916Q117.1666 73.503 117.0171 73.7305Q116.8676 73.958 116.8676 74.27Q116.8676 74.712 117.1991 75.024Q117.5306 75.336 118.3236 75.336H119.2857Q120.1567 75.336 120.6378 75.063Q121.1188 74.79 121.1188 74.244ZM118.7917 70.357Q119.4547 70.357 119.8447 70.0385Q120.2347 69.72 120.2347 69.057V68.693Q120.2347 68.03 119.8447 67.7115Q119.4547 67.393 118.7917 67.393Q118.1286 67.393 117.7386 67.7115Q117.3486 68.03 117.3486 68.693V69.057Q117.3486 69.72 117.7386 70.0385Q118.1286 70.357 118.7917 70.357Z" />
            <path d="M125.7471 73.581Q124.837 73.581 124.161 73.1455Q123.4849 72.71 123.1079 71.9235Q122.7309 71.137 122.7309 70.071Q122.7309 69.005 123.1079 68.2185Q123.4849 67.432 124.161 66.9965Q124.837 66.561 125.7471 66.561Q126.6441 66.561 127.2941 66.9835Q127.9442 67.406 128.2952 68.147Q128.6462 68.888 128.6462 69.837V70.331H123.823V70.643Q123.823 71.514 124.3495 72.0925Q124.876 72.671 125.8121 72.671Q126.4491 72.671 126.9236 72.372Q127.3982 72.073 127.6582 71.514L128.3992 72.047Q128.0742 72.723 127.3852 73.152Q126.6961 73.581 125.7471 73.581ZM125.7471 67.432Q125.188 67.432 124.7525 67.692Q124.317 67.952 124.07 68.4135Q123.823 68.875 123.823 69.46V69.551H127.5282V69.408Q127.5282 68.81 127.3071 68.368Q127.0861 67.926 126.6831 67.679Q126.2801 67.432 125.7471 67.432Z" />
            <path d="M131.4024 73.425H130.3623V66.717H131.4024V67.809H131.4544Q131.7014 67.237 132.1499 66.899Q132.5984 66.561 133.3525 66.561Q134.3925 66.561 134.9971 67.2305Q135.6016 67.9 135.6016 69.122V73.425H134.5616V69.304Q134.5616 68.407 134.178 67.952Q133.7945 67.497 133.0405 67.497Q132.6244 67.497 132.2474 67.6335Q131.8704 67.77 131.6364 68.056Q131.4024 68.342 131.4024 68.771Z" />
            <path d="M140.5289 73.425H139.2288Q138.6958 73.425 138.4098 73.113Q138.1238 72.801 138.1238 72.32V67.627H137.0187V66.717H137.6427Q137.9808 66.717 138.1043 66.5805Q138.2278 66.444 138.2278 66.106V64.858H139.1638V66.717H140.6329V67.627H139.1638V72.515H140.5289Z" />
            <path d="M145.2352 70.032H141.842V68.914H145.2352Z" />
            <path d="M148.2773 73.425H147.2373V66.717H148.2773V67.809H148.3293Q148.5763 67.237 149.0249 66.899Q149.4734 66.561 150.2274 66.561Q151.2675 66.561 151.872 67.2305Q152.4766 67.9 152.4766 69.122V73.425H151.4365V69.304Q151.4365 68.407 151.053 67.952Q150.6695 67.497 149.9154 67.497Q149.4994 67.497 149.1224 67.6335Q148.7454 67.77 148.5113 68.056Q148.2773 68.342 148.2773 68.771Z" />
            <path d="M160.082 73.425H159.497Q159.0809 73.425 158.8209 73.2495Q158.5609 73.074 158.4439 72.762Q158.3269 72.45 158.3269 72.047V71.956L158.7299 72.333H158.2749Q158.0669 72.944 157.5534 73.2625Q157.0398 73.581 156.3378 73.581Q155.2717 73.581 154.6802 73.035Q154.0887 72.489 154.0887 71.553Q154.0887 70.916 154.4007 70.4805Q154.7127 70.045 155.3432 69.8175Q155.9738 69.59 156.9488 69.59H158.2749V68.927Q158.2749 68.212 157.8849 67.835Q157.4949 67.458 156.6888 67.458Q156.0908 67.458 155.6747 67.731Q155.2587 68.004 154.9857 68.459L154.3617 67.874Q154.6347 67.341 155.2327 66.951Q155.8308 66.561 156.7408 66.561Q157.9499 66.561 158.6324 67.159Q159.315 67.757 159.315 68.823V72.515H160.082ZM158.2749 70.37H156.8968Q156.0128 70.37 155.5967 70.63Q155.1807 70.89 155.1807 71.384V71.657Q155.1807 72.151 155.5447 72.424Q155.9088 72.697 156.5068 72.697Q157.0268 72.697 157.4233 72.5345Q157.8199 72.372 158.0474 72.0925Q158.2749 71.813 158.2749 71.475Z" />
            <path d="M164.3462 73.425H163.0462Q162.5131 73.425 162.2271 73.113Q161.9411 72.801 161.9411 72.32V67.627H160.836V66.717H161.4601Q161.7981 66.717 161.9216 66.5805Q162.0451 66.444 162.0451 66.106V64.858H162.9812V66.717H164.4502V67.627H162.9812V72.515H164.3462Z" />
            <path d="M166.6474 65.144Q166.3224 65.144 166.1663 64.9815Q166.0103 64.819 166.0103 64.559V64.39Q166.0103 64.13 166.1663 63.9675Q166.3224 63.805 166.6474 63.805Q166.9854 63.805 167.1349 63.9675Q167.2844 64.13 167.2844 64.39V64.559Q167.2844 64.819 167.1349 64.9815Q166.9854 65.144 166.6474 65.144ZM166.1273 73.425V66.717H167.1674V73.425Z" />
            <path d="M172.0687 73.425H170.8596L168.5065 66.717H169.5465L170.7166 70.045L171.4446 72.333H171.5096L172.2377 70.045L173.4338 66.717H174.4348Z" />
            <path d="M178.192 73.581Q177.282 73.581 176.6059 73.1455Q175.9299 72.71 175.5529 71.9235Q175.1759 71.137 175.1759 70.071Q175.1759 69.005 175.5529 68.2185Q175.9299 67.432 176.6059 66.9965Q177.282 66.561 178.192 66.561Q179.0891 66.561 179.7391 66.9835Q180.3891 67.406 180.7402 68.147Q181.0912 68.888 181.0912 69.837V70.331H176.2679V70.643Q176.2679 71.514 176.7944 72.0925Q177.321 72.671 178.257 72.671Q178.8941 72.671 179.3686 72.372Q179.8431 72.073 180.1031 71.514L180.8442 72.047Q180.5192 72.723 179.8301 73.152Q179.1411 73.581 178.192 73.581ZM178.192 67.432Q177.633 67.432 177.1975 67.692Q176.7619 67.952 176.5149 68.4135Q176.2679 68.875 176.2679 69.46V69.551H179.9731V69.408Q179.9731 68.81 179.7521 68.368Q179.5311 67.926 179.1281 67.679Q178.7251 67.432 178.192 67.432Z" />
            <path d="M188.3716 73.581Q186.9545 73.581 186.168 72.632Q185.3814 71.683 185.3814 70.071Q185.3814 68.459 186.168 67.51Q186.9545 66.561 188.3716 66.561Q189.3727 66.561 189.9837 67.003Q190.5947 67.445 190.8807 68.134L190.0097 68.576Q189.8277 68.056 189.4052 67.77Q188.9826 67.484 188.3716 67.484Q187.4485 67.484 186.974 68.0495Q186.4995 68.615 186.4995 69.499V70.643Q186.4995 71.514 186.974 72.086Q187.4485 72.658 188.3716 72.658Q189.0086 72.658 189.4637 72.359Q189.9187 72.06 190.1917 71.488L190.9457 71.995Q190.6207 72.71 189.9772 73.1455Q189.3337 73.581 188.3716 73.581Z" />
            <path d="M193.4549 73.425H192.4148V66.717H193.4549V67.952H193.5199Q193.6369 67.627 193.8839 67.3475Q194.1309 67.068 194.5209 66.8925Q194.911 66.717 195.457 66.717H195.86V67.757H195.249Q194.69 67.757 194.2869 67.9065Q193.8839 68.056 193.6694 68.303Q193.4549 68.55 193.4549 68.875Z" />
            <path d="M199.6562 73.581Q198.7592 73.581 198.0766 73.1455Q197.3941 72.71 197.0106 71.9235Q196.6271 71.137 196.6271 70.071Q196.6271 69.005 197.0106 68.2185Q197.3941 67.432 198.0766 66.9965Q198.7592 66.561 199.6562 66.561Q200.5533 66.561 201.2358 66.9965Q201.9184 67.432 202.3019 68.2185Q202.6854 69.005 202.6854 70.071Q202.6854 71.137 202.3019 71.9235Q201.9184 72.71 201.2358 73.1455Q200.5533 73.581 199.6562 73.581ZM199.6562 72.658Q200.5013 72.658 201.0343 72.138Q201.5673 71.618 201.5673 70.552V69.59Q201.5673 68.524 201.0343 68.004Q200.5013 67.484 199.6562 67.484Q198.8242 67.484 198.2847 68.004Q197.7451 68.524 197.7451 69.59V70.552Q197.7451 71.618 198.2847 72.138Q198.8242 72.658 199.6562 72.658Z" />
            <path d="M206.4166 73.581Q205.4936 73.581 204.8565 73.2235Q204.2195 72.866 203.7645 72.268L204.5055 71.67Q204.8955 72.151 205.3766 72.424Q205.8576 72.697 206.4946 72.697Q207.1577 72.697 207.5282 72.411Q207.8987 72.125 207.8987 71.605Q207.8987 71.215 207.6452 70.929Q207.3917 70.643 206.7286 70.552L206.1956 70.474Q205.5846 70.383 205.0905 70.1685Q204.5965 69.954 204.317 69.5575Q204.0375 69.161 204.0375 68.537Q204.0375 67.536 204.72 67.0485Q205.4026 66.561 206.4296 66.561Q206.9756 66.561 207.3982 66.691Q207.8207 66.821 208.1587 67.0615Q208.4967 67.302 208.7697 67.64L208.0807 68.264Q207.8597 67.952 207.4307 67.6985Q207.0016 67.445 206.3516 67.445Q205.7146 67.445 205.3766 67.7245Q205.0385 68.004 205.0385 68.485Q205.0385 68.966 205.3701 69.1935Q205.7016 69.421 206.3256 69.525L206.8456 69.603Q207.9637 69.772 208.4317 70.2465Q208.8998 70.721 208.8998 71.488Q208.8998 72.138 208.6007 72.606Q208.3017 73.074 207.7427 73.3275Q207.1837 73.581 206.4166 73.581Z" />
            <path d="M212.67 73.581Q211.7469 73.581 211.1099 73.2235Q210.4728 72.866 210.0178 72.268L210.7589 71.67Q211.1489 72.151 211.6299 72.424Q212.1109 72.697 212.748 72.697Q213.411 72.697 213.7815 72.411Q214.1521 72.125 214.1521 71.605Q214.1521 71.215 213.8985 70.929Q213.645 70.643 212.982 70.552L212.449 70.474Q211.8379 70.383 211.3439 70.1685Q210.8499 69.954 210.5704 69.5575Q210.2908 69.161 210.2908 68.537Q210.2908 67.536 210.9734 67.0485Q211.6559 66.561 212.683 66.561Q213.229 66.561 213.6515 66.691Q214.074 66.821 214.4121 67.0615Q214.7501 67.302 215.0231 67.64L214.3341 68.264Q214.1131 67.952 213.684 67.6985Q213.255 67.445 212.605 67.445Q211.9679 67.445 211.6299 67.7245Q211.2919 68.004 211.2919 68.485Q211.2919 68.966 211.6234 69.1935Q211.9549 69.421 212.579 69.525L213.099 69.603Q214.2171 69.772 214.6851 70.2465Q215.1531 70.721 215.1531 71.488Q215.1531 72.138 214.8541 72.606Q214.5551 73.074 213.996 73.3275Q213.437 73.581 212.67 73.581Z" />
            <path d="M220.0414 70.032H216.6482V68.914H220.0414Z" />
            <path d="M222.0435 76.025V66.717H223.0836V67.809H223.1356Q223.3956 67.172 223.9026 66.8665Q224.4096 66.561 225.0987 66.561Q225.9437 66.561 226.5548 66.99Q227.1658 67.419 227.4973 68.2055Q227.8288 68.992 227.8288 70.071Q227.8288 71.137 227.4973 71.93Q227.1658 72.723 226.5548 73.152Q225.9437 73.581 225.0987 73.581Q224.4096 73.581 223.9221 73.269Q223.4346 72.957 223.1356 72.333H223.0836V76.025ZM224.8127 72.645Q225.6967 72.645 226.2037 72.0925Q226.7108 71.54 226.7108 70.643V69.499Q226.7108 68.602 226.2037 68.0495Q225.6967 67.497 224.8127 67.497Q224.3446 67.497 223.9481 67.666Q223.5516 67.835 223.3176 68.121Q223.0836 68.407 223.0836 68.784V71.28Q223.0836 71.709 223.3176 72.0145Q223.5516 72.32 223.9481 72.4825Q224.3446 72.645 224.8127 72.645Z" />
            <path d="M231.612 73.425H230.689Q230.156 73.425 229.8699 73.1195Q229.5839 72.814 229.5839 72.346V63.805H230.624V72.515H231.612Z" />
            <path d="M238.5804 73.425H237.9954Q237.5794 73.425 237.3194 73.2495Q237.0593 73.074 236.9423 72.762Q236.8253 72.45 236.8253 72.047V71.956L237.2284 72.333H236.7733Q236.5653 72.944 236.0518 73.2625Q235.5383 73.581 234.8362 73.581Q233.7702 73.581 233.1786 73.035Q232.5871 72.489 232.5871 71.553Q232.5871 70.916 232.8991 70.4805Q233.2111 70.045 233.8417 69.8175Q234.4722 69.59 235.4473 69.59H236.7733V68.927Q236.7733 68.212 236.3833 67.835Q235.9933 67.458 235.1872 67.458Q234.5892 67.458 234.1732 67.731Q233.7572 68.004 233.4841 68.459L232.8601 67.874Q233.1331 67.341 233.7312 66.951Q234.3292 66.561 235.2392 66.561Q236.4483 66.561 237.1309 67.159Q237.8134 67.757 237.8134 68.823V72.515H238.5804ZM236.7733 70.37H235.3953Q234.5112 70.37 234.0952 70.63Q233.6792 70.89 233.6792 71.384V71.657Q233.6792 72.151 234.0432 72.424Q234.4072 72.697 235.0052 72.697Q235.5253 72.697 235.9218 72.5345Q236.3183 72.372 236.5458 72.0925Q236.7733 71.813 236.7733 71.475Z" />
            <path d="M242.8447 73.425H241.5446Q241.0116 73.425 240.7256 73.113Q240.4395 72.801 240.4395 72.32V67.627H239.3345V66.717H239.9585Q240.2965 66.717 240.42 66.5805Q240.5435 66.444 240.5435 66.106V64.858H241.4796V66.717H242.9487V67.627H241.4796V72.515H242.8447Z" />
            <path d="M244.8598 73.425V67.627H243.7677V66.717H244.8598V65.365Q244.8598 64.676 245.2238 64.2405Q245.5878 63.805 246.3289 63.805H247.3429V64.715H245.8998V66.717H247.3429V67.627H245.8998V73.425Z" />
            <path d="M251.1911 73.581Q250.2941 73.581 249.6116 73.1455Q248.929 72.71 248.5455 71.9235Q248.162 71.137 248.162 70.071Q248.162 69.005 248.5455 68.2185Q248.929 67.432 249.6116 66.9965Q250.2941 66.561 251.1911 66.561Q252.0882 66.561 252.7707 66.9965Q253.4533 67.432 253.8368 68.2185Q254.2203 69.005 254.2203 70.071Q254.2203 71.137 253.8368 71.9235Q253.4533 72.71 252.7707 73.1455Q252.0882 73.581 251.1911 73.581ZM251.1911 72.658Q252.0362 72.658 252.5692 72.138Q253.1023 71.618 253.1023 70.552V69.59Q253.1023 68.524 252.5692 68.004Q252.0362 67.484 251.1911 67.484Q250.3591 67.484 249.8196 68.004Q249.28 68.524 249.28 69.59V70.552Q249.28 71.618 249.8196 72.138Q250.3591 72.658 251.1911 72.658Z" />
            <path d="M256.9765 73.425H255.9364V66.717H256.9765V67.952H257.0415Q257.1585 67.627 257.4055 67.3475Q257.6525 67.068 258.0425 66.8925Q258.4326 66.717 258.9786 66.717H259.3816V67.757H258.7706Q258.2115 67.757 257.8085 67.9065Q257.4055 68.056 257.191 68.303Q256.9765 68.55 256.9765 68.875Z" />
            <path d="M261.7477 73.425H260.7077V66.717H261.7477V67.809H261.7997Q262.0208 67.289 262.4238 66.925Q262.8268 66.561 263.6068 66.561Q264.2699 66.561 264.8289 66.8795Q265.3879 67.198 265.661 67.926H265.687Q265.869 67.38 266.3695 66.9705Q266.87 66.561 267.7281 66.561Q268.7551 66.561 269.3337 67.2305Q269.9122 67.9 269.9122 69.122V73.425H268.8721V69.304Q268.8721 68.42 268.5211 67.9585Q268.1701 67.497 267.4031 67.497Q267 67.497 266.636 67.6335Q266.272 67.77 266.051 68.056Q265.83 68.342 265.83 68.771V73.425H264.7899V69.304Q264.7899 68.407 264.4389 67.952Q264.0879 67.497 263.3468 67.497Q262.9438 67.497 262.5733 67.6335Q262.2028 67.77 261.9753 68.056Q261.7477 68.342 261.7477 68.771Z" />
            <path d="M280.9498 72.463V73.425H274.9955V72.307L277.9597 69.577Q278.5967 68.992 279.0257 68.329Q279.4547 67.666 279.4547 67.016V66.86Q279.4547 66.106 279.0387 65.638Q278.6227 65.17 277.7776 65.17Q276.9456 65.17 276.5101 65.612Q276.0746 66.054 275.8925 66.704L274.9175 66.327Q275.0995 65.794 275.444 65.3065Q275.7885 64.819 276.3736 64.507Q276.9586 64.195 277.8297 64.195Q278.7137 64.195 279.3377 64.533Q279.9618 64.871 280.2868 65.4625Q280.6118 66.054 280.6118 66.834Q280.6118 67.536 280.3583 68.121Q280.1048 68.706 279.6563 69.226Q279.2077 69.746 278.6227 70.266L276.1786 72.463Z" />
            <path d="M283.0299 73.425V64.351H286.0721Q287.2032 64.351 288.0417 64.8515Q288.8803 65.352 289.3353 66.3595Q289.7903 67.367 289.7903 68.888Q289.7903 70.409 289.3353 71.4165Q288.8803 72.424 288.0417 72.9245Q287.2032 73.425 286.0721 73.425ZM284.122 72.463H286.0721Q286.8262 72.463 287.3982 72.125Q287.9702 71.787 288.2952 71.1565Q288.6203 70.526 288.6203 69.629V68.147Q288.6203 67.25 288.2952 66.613Q287.9702 65.976 287.3982 65.6445Q286.8262 65.313 286.0721 65.313H284.122Z" />
            <path d="M300.3729 74.166Q300.3729 74.855 300.0089 75.3035Q299.6449 75.752 298.9233 75.9665Q298.2018 76.181 297.1227 76.181Q296.0827 76.181 295.4261 75.986Q294.7696 75.791 294.4706 75.4205Q294.1716 75.05 294.1716 74.53Q294.1716 73.984 294.4576 73.672Q294.7436 73.36 295.2376 73.23V73.087Q294.9516 72.944 294.7956 72.7165Q294.6396 72.489 294.6396 72.151Q294.6396 71.644 294.9646 71.3775Q295.2896 71.111 295.7967 70.981V70.929Q295.1986 70.643 294.8671 70.11Q294.5356 69.577 294.5356 68.875Q294.5356 68.186 294.8476 67.666Q295.1596 67.146 295.7317 66.8535Q296.3037 66.561 297.0577 66.561Q297.4218 66.561 297.7403 66.626Q298.0588 66.691 298.3318 66.821V66.704Q298.3318 66.314 298.5138 66.0605Q298.6958 65.807 299.1119 65.807H300.1129V66.717H298.8388V67.146Q299.2029 67.458 299.4044 67.9Q299.6059 68.342 299.6059 68.875Q299.6059 69.551 299.2939 70.0775Q298.9818 70.604 298.4098 70.8965Q297.8378 71.189 297.0707 71.189Q296.9017 71.189 296.7327 71.1695Q296.5637 71.15 296.4207 71.124Q296.0957 71.215 295.8162 71.3905Q295.5367 71.566 295.5367 71.878Q295.5367 72.177 295.8227 72.281Q296.1087 72.385 296.5637 72.385H297.9938Q299.2419 72.385 299.8074 72.8595Q300.3729 73.334 300.3729 74.166ZM299.3979 74.244Q299.3979 73.841 299.0924 73.6005Q298.7868 73.36 298.0068 73.36H295.7707Q295.4456 73.503 295.2961 73.7305Q295.1466 73.958 295.1466 74.27Q295.1466 74.712 295.4781 75.024Q295.8097 75.336 296.6027 75.336H297.5648Q298.4358 75.336 298.9168 75.063Q299.3979 74.79 299.3979 74.244ZM297.0707 70.357Q297.7338 70.357 298.1238 70.0385Q298.5138 69.72 298.5138 69.057V68.693Q298.5138 68.03 298.1238 67.7115Q297.7338 67.393 297.0707 67.393Q296.4077 67.393 296.0177 67.7115Q295.6277 68.03 295.6277 68.693V69.057Q295.6277 69.72 296.0177 70.0385Q296.4077 70.357 297.0707 70.357Z" />
            <path d="M307.0033 73.425H306.4183Q306.0022 73.425 305.7422 73.2495Q305.4822 73.074 305.3652 72.762Q305.2482 72.45 305.2482 72.047V71.956L305.6512 72.333H305.1962Q304.9882 72.944 304.4747 73.2625Q303.9611 73.581 303.2591 73.581Q302.193 73.581 301.6015 73.035Q301.01 72.489 301.01 71.553Q301.01 70.916 301.322 70.4805Q301.634 70.045 302.2645 69.8175Q302.8951 69.59 303.8701 69.59H305.1962V68.927Q305.1962 68.212 304.8062 67.835Q304.4162 67.458 303.6101 67.458Q303.0121 67.458 302.596 67.731Q302.18 68.004 301.907 68.459L301.283 67.874Q301.556 67.341 302.154 66.951Q302.7521 66.561 303.6621 66.561Q304.8712 66.561 305.5537 67.159Q306.2363 67.757 306.2363 68.823V72.515H307.0033ZM305.1962 70.37H303.8181Q302.9341 70.37 302.518 70.63Q302.102 70.89 302.102 71.384V71.657Q302.102 72.151 302.466 72.424Q302.8301 72.697 303.4281 72.697Q303.9481 72.697 304.3446 72.5345Q304.7412 72.372 304.9687 72.0925Q305.1962 71.813 305.1962 71.475Z" />
            <path d="M309.5254 73.425H308.4854V66.717H309.5254V67.809H309.5774Q309.7985 67.289 310.2015 66.925Q310.6045 66.561 311.3845 66.561Q312.0476 66.561 312.6066 66.8795Q313.1656 67.198 313.4387 67.926H313.4647Q313.6467 67.38 314.1472 66.9705Q314.6477 66.561 315.5058 66.561Q316.5328 66.561 317.1114 67.2305Q317.6899 67.9 317.6899 69.122V73.425H316.6498V69.304Q316.6498 68.42 316.2988 67.9585Q315.9478 67.497 315.1808 67.497Q314.7777 67.497 314.4137 67.6335Q314.0497 67.77 313.8287 68.056Q313.6077 68.342 313.6077 68.771V73.425H312.5676V69.304Q312.5676 68.407 312.2166 67.952Q311.8656 67.497 311.1245 67.497Q310.7215 67.497 310.351 67.6335Q309.9805 67.77 309.753 68.056Q309.5254 68.342 309.5254 68.771Z" />
            <path d="M322.3572 73.581Q321.4471 73.581 320.7711 73.1455Q320.095 72.71 319.718 71.9235Q319.341 71.137 319.341 70.071Q319.341 69.005 319.718 68.2185Q320.095 67.432 320.7711 66.9965Q321.4471 66.561 322.3572 66.561Q323.2542 66.561 323.9043 66.9835Q324.5543 67.406 324.9053 68.147Q325.2563 68.888 325.2563 69.837V70.331H320.4331V70.643Q320.4331 71.514 320.9596 72.0925Q321.4861 72.671 322.4222 72.671Q323.0592 72.671 323.5337 72.372Q324.0083 72.073 324.2683 71.514L325.0093 72.047Q324.6843 72.723 323.9953 73.152Q323.3062 73.581 322.3572 73.581ZM322.3572 67.432Q321.7981 67.432 321.3626 67.692Q320.9271 67.952 320.6801 68.4135Q320.4331 68.875 320.4331 69.46V69.551H324.1383V69.408Q324.1383 68.81 323.9173 68.368Q323.6962 67.926 323.2932 67.679Q322.8902 67.432 322.3572 67.432Z" />
            <path d="M332.5627 73.581Q331.6527 73.581 330.9767 73.1455Q330.3006 72.71 329.9236 71.9235Q329.5466 71.137 329.5466 70.071Q329.5466 69.005 329.9236 68.2185Q330.3006 67.432 330.9767 66.9965Q331.6527 66.561 332.5627 66.561Q333.4598 66.561 334.1098 66.9835Q334.7599 67.406 335.1109 68.147Q335.4619 68.888 335.4619 69.837V70.331H330.6386V70.643Q330.6386 71.514 331.1652 72.0925Q331.6917 72.671 332.6277 72.671Q333.2648 72.671 333.7393 72.372Q334.2138 72.073 334.4739 71.514L335.2149 72.047Q334.8899 72.723 334.2008 73.152Q333.5118 73.581 332.5627 73.581ZM332.5627 67.432Q332.0037 67.432 331.5682 67.692Q331.1327 67.952 330.8856 68.4135Q330.6386 68.875 330.6386 69.46V69.551H334.3438V69.408Q334.3438 68.81 334.1228 68.368Q333.9018 67.926 333.4988 67.679Q333.0958 67.432 332.5627 67.432Z" />
            <path d="M338.2181 73.425H337.178V66.717H338.2181V67.809H338.2701Q338.5171 67.237 338.9656 66.899Q339.4141 66.561 340.1682 66.561Q341.2082 66.561 341.8128 67.2305Q342.4173 67.9 342.4173 69.122V73.425H341.3772V69.304Q341.3772 68.407 340.9937 67.952Q340.6102 67.497 339.8562 67.497Q339.4401 67.497 339.0631 67.6335Q338.6861 67.77 338.4521 68.056Q338.2181 68.342 338.2181 68.771Z" />
            <path d="M350.2177 74.166Q350.2177 74.855 349.8537 75.3035Q349.4897 75.752 348.7682 75.9665Q348.0466 76.181 346.9676 76.181Q345.9275 76.181 345.271 75.986Q344.6144 75.791 344.3154 75.4205Q344.0164 75.05 344.0164 74.53Q344.0164 73.984 344.3024 73.672Q344.5884 73.36 345.0825 73.23V73.087Q344.7964 72.944 344.6404 72.7165Q344.4844 72.489 344.4844 72.151Q344.4844 71.644 344.8094 71.3775Q345.1345 71.111 345.6415 70.981V70.929Q345.0434 70.643 344.7119 70.11Q344.3804 69.577 344.3804 68.875Q344.3804 68.186 344.6924 67.666Q345.0044 67.146 345.5765 66.8535Q346.1485 66.561 346.9026 66.561Q347.2666 66.561 347.5851 66.626Q347.9036 66.691 348.1766 66.821V66.704Q348.1766 66.314 348.3586 66.0605Q348.5406 65.807 348.9567 65.807H349.9577V66.717H348.6837V67.146Q349.0477 67.458 349.2492 67.9Q349.4507 68.342 349.4507 68.875Q349.4507 69.551 349.1387 70.0775Q348.8267 70.604 348.2546 70.8965Q347.6826 71.189 346.9156 71.189Q346.7465 71.189 346.5775 71.1695Q346.4085 71.15 346.2655 71.124Q345.9405 71.215 345.661 71.3905Q345.3815 71.566 345.3815 71.878Q345.3815 72.177 345.6675 72.281Q345.9535 72.385 346.4085 72.385H347.8386Q349.0867 72.385 349.6522 72.8595Q350.2177 73.334 350.2177 74.166ZM349.2427 74.244Q349.2427 73.841 348.9372 73.6005Q348.6317 73.36 347.8516 73.36H345.6155Q345.2905 73.503 345.141 73.7305Q344.9914 73.958 344.9914 74.27Q344.9914 74.712 345.323 75.024Q345.6545 75.336 346.4475 75.336H347.4096Q348.2806 75.336 348.7617 75.063Q349.2427 74.79 349.2427 74.244ZM346.9156 70.357Q347.5786 70.357 347.9686 70.0385Q348.3586 69.72 348.3586 69.057V68.693Q348.3586 68.03 347.9686 67.7115Q347.5786 67.393 346.9156 67.393Q346.2525 67.393 345.8625 67.7115Q345.4725 68.03 345.4725 68.693V69.057Q345.4725 69.72 345.8625 70.0385Q346.2525 70.357 346.9156 70.357Z" />
            <path d="M351.9468 65.144Q351.6218 65.144 351.4658 64.9815Q351.3098 64.819 351.3098 64.559V64.39Q351.3098 64.13 351.4658 63.9675Q351.6218 63.805 351.9468 63.805Q352.2849 63.805 352.4344 63.9675Q352.5839 64.13 352.5839 64.39V64.559Q352.5839 64.819 352.4344 64.9815Q352.2849 65.144 351.9468 65.144ZM351.4268 73.425V66.717H352.4669V73.425Z" />
            <path d="M355.7171 73.425H354.677V66.717H355.7171V67.809H355.7691Q356.0161 67.237 356.4646 66.899Q356.9131 66.561 357.6672 66.561Q358.7072 66.561 359.3118 67.2305Q359.9163 67.9 359.9163 69.122V73.425H358.8762V69.304Q358.8762 68.407 358.4927 67.952Q358.1092 67.497 357.3551 67.497Q356.9391 67.497 356.5621 67.6335Q356.1851 67.77 355.9511 68.056Q355.7171 68.342 355.7171 68.771Z" />
            <path d="M364.5836 73.581Q363.6735 73.581 362.9975 73.1455Q362.3214 72.71 361.9444 71.9235Q361.5674 71.137 361.5674 70.071Q361.5674 69.005 361.9444 68.2185Q362.3214 67.432 362.9975 66.9965Q363.6735 66.561 364.5836 66.561Q365.4806 66.561 366.1306 66.9835Q366.7807 67.406 367.1317 68.147Q367.4827 68.888 367.4827 69.837V70.331H362.6594V70.643Q362.6594 71.514 363.186 72.0925Q363.7125 72.671 364.6486 72.671Q365.2856 72.671 365.7601 72.372Q366.2346 72.073 366.4947 71.514L367.2357 72.047Q366.9107 72.723 366.2216 73.152Q365.5326 73.581 364.5836 73.581ZM364.5836 67.432Q364.0245 67.432 363.589 67.692Q363.1535 67.952 362.9065 68.4135Q362.6594 68.875 362.6594 69.46V69.551H366.3647V69.408Q366.3647 68.81 366.1436 68.368Q365.9226 67.926 365.5196 67.679Q365.1166 67.432 364.5836 67.432Z" />
          </g>
        </g>
      </g>
    </g>
  </g>
</svg>