<svg width="24" xmlns="http://www.w3.org/2000/svg" height="28" id="screenshot-b500948f-af59-8076-8008-be692f4c4e2a" shape-rendering="crispEdges" viewBox="1 2 22 22" preserveAspectRatio="xMidYMin meet" xmlns:xlink="http://www.w3.org/1999/xlink" fill="none" version="1.1"><g id="shape-b500948f-af59-8076-8008-be692f4c4e2a" width="24" height="24" rx="0" ry="0" style="fill: rgb(0, 0, 0);"><g id="shape-b500948f-af59-8076-8008-be692f4cf775" style="display: none;"><g class="fills" id="fills-b500948f-af59-8076-8008-be692f4cf775"><rect width="24" height="24" x="0" transform="matrix(1.000000, 0.000000, 0.000000, 1.000000, 0.000000, 0.000000)" style="fill: none;" ry="0" fill="none" rx="0" y="0"/></g></g><g id="shape-b500948f-af59-8076-8008-be692f4cf776"><g class="fills" id="fills-b500948f-af59-8076-8008-be692f4cf776"><rect width="24" height="24" x="0" transform="matrix(1.000000, 0.000000, 0.000000, 1.000000, 0.000000, 0.000000)" style="fill: none;" ry="0" fill="none" rx="0" y="0"/></g></g><g id="shape-b500948f-af59-8076-8008-be692f4cf777"><g class="fills" id="fills-b500948f-af59-8076-8008-be692f4cf777"><path d="M3,3L21,3L21,5L23,5L23,17L21,17L21,19L15,19L15,21L19,21L19,23L5,23L5,21L9,21L9,19L3,19L3,17L1,17L1,5L3,5Z" style="fill: rgb(214, 93, 150);"/></g></g><g id="shape-b500948f-af59-8076-8008-be692f4cf778"><g class="fills" id="fills-b500948f-af59-8076-8008-be692f4cf778"><rect rx="0" ry="0" x="3" y="5" transform="matrix(1.000000, 0.000000, 0.000000, 1.000000, 0.000000, 0.000000)" width="18" height="12" style="fill: rgb(255, 173, 207);"/></g></g><g id="shape-b500948f-af59-8076-8008-be692f4cf779"><g class="fills" id="fills-b500948f-af59-8076-8008-be692f4cf779"><rect rx="0" ry="0" x="3" y="5" transform="matrix(1.000000, 0.000000, 0.000000, 1.000000, 0.000000, 0.000000)" width="18" height="2" style="fill: rgb(255, 228, 238);"/></g></g><g id="shape-b500948f-af59-8076-8008-be692f4d29fa"><g class="fills" id="fills-b500948f-af59-8076-8008-be692f4d29fa"><rect rx="0" ry="0" x="3" y="5" transform="matrix(1.000000, 0.000000, 0.000000, 1.000000, 0.000000, 0.000000)" width="2" height="10" style="fill: rgb(255, 228, 238);"/></g></g><g id="shape-b500948f-af59-8076-8008-be692f4d29fb"><g class="fills" id="fills-b500948f-af59-8076-8008-be692f4d29fb"><rect rx="0" ry="0" x="5" y="7" transform="matrix(1.000000, 0.000000, 0.000000, 1.000000, 0.000000, 0.000000)" width="14" height="8" style="fill: rgb(61, 39, 73);"/></g></g><g id="shape-b500948f-af59-8076-8008-be692f4d29fc"><g class="fills" id="fills-b500948f-af59-8076-8008-be692f4d29fc"><path d="M7,9L9,9L9,11L11,11L11,13L13,13L13,9L17,9L17,13L15,13L15,15L7,15Z" style="fill: rgb(255, 173, 207);"/></g></g><g id="shape-b500948f-af59-8076-8008-be692f4d29fd"><g class="fills" id="fills-b500948f-af59-8076-8008-be692f4d29fd"><rect rx="0" ry="0" x="9" y="19" transform="matrix(1.000000, 0.000000, 0.000000, 1.000000, 0.000000, 0.000000)" width="6" height="2" style="fill: rgb(255, 173, 207);"/></g></g><g id="shape-b500948f-af59-8076-8008-be692f4d5adf"><g class="fills" id="fills-b500948f-af59-8076-8008-be692f4d5adf"><rect rx="0" ry="0" x="7" y="21" transform="matrix(1.000000, 0.000000, 0.000000, 1.000000, 0.000000, 0.000000)" width="10" height="1" style="fill: rgb(255, 228, 238);"/></g></g><g id="shape-b500948f-af59-8076-8008-be692f4d5ae0"><g class="fills" id="fills-b500948f-af59-8076-8008-be692f4d5ae0"><rect rx="0" ry="0" x="5" y="22" transform="matrix(1.000000, 0.000000, 0.000000, 1.000000, 0.000000, 0.000000)" width="14" height="1" style="fill: rgb(185, 71, 128);"/></g></g></g></svg>
