<svg width="24" xmlns="http://www.w3.org/2000/svg" height="24" id="screenshot-b500948f-af59-8076-8008-be693062ab11" shape-rendering="crispEdges" viewBox="2 3 20 20" xmlns:xlink="http://www.w3.org/1999/xlink" fill="none" version="1.1"><g id="shape-b500948f-af59-8076-8008-be693062ab11" width="24" height="24" rx="0" ry="0" style="fill: rgb(0, 0, 0);"><g id="shape-b500948f-af59-8076-8008-be6930636881" style="display: none;"><g class="fills" id="fills-b500948f-af59-8076-8008-be6930636881"><rect width="24" height="24" x="0" transform="matrix(1.000000, 0.000000, 0.000000, 1.000000, 0.000000, 0.000000)" style="fill: none;" ry="0" fill="none" rx="0" y="0"/></g></g><g id="shape-b500948f-af59-8076-8008-be6930636882"><g class="fills" id="fills-b500948f-af59-8076-8008-be6930636882"><rect width="24" height="24" x="0" transform="matrix(1.000000, 0.000000, 0.000000, 1.000000, 0.000000, 0.000000)" style="fill: none;" ry="0" fill="none" rx="0" y="0"/></g></g><g id="shape-b500948f-af59-8076-8008-be6930639a32"><g class="fills" id="fills-b500948f-af59-8076-8008-be6930639a32"><path d="M4,3L20,3L20,5L22,5L22,17L20,17L20,19L10,19L10,21L8,21L8,23L4,23L4,19L2,19L2,5L4,5Z" style="fill: rgb(214, 93, 150);"/></g></g><g id="shape-b500948f-af59-8076-8008-be6930639a33"><g class="fills" id="fills-b500948f-af59-8076-8008-be6930639a33"><path d="M4,5L20,5L20,17L8,17L8,19L6,19L6,17L4,17Z" style="fill: rgb(255, 173, 207);"/></g></g><g id="shape-b500948f-af59-8076-8008-be6930639a34"><g class="fills" id="fills-b500948f-af59-8076-8008-be6930639a34"><rect rx="0" ry="0" x="4" y="5" transform="matrix(1.000000, 0.000000, 0.000000, 1.000000, 0.000000, 0.000000)" width="16" height="2" style="fill: rgb(255, 228, 238);"/></g></g><g id="shape-b500948f-af59-8076-8008-be693063f98d"><g class="fills" id="fills-b500948f-af59-8076-8008-be693063f98d"><rect rx="0" ry="0" x="4" y="7" transform="matrix(1.000000, 0.000000, 0.000000, 1.000000, 0.000000, 0.000000)" width="2" height="8" style="fill: rgb(255, 228, 238);"/></g></g><g id="shape-b500948f-af59-8076-8008-be693063f98e"><g class="fills" id="fills-b500948f-af59-8076-8008-be693063f98e"><rect rx="0" ry="0" x="8" y="17" transform="matrix(1.000000, 0.000000, 0.000000, 1.000000, 0.000000, 0.000000)" width="12" height="1" style="fill: rgb(185, 71, 128);"/></g></g><g id="shape-b500948f-af59-8076-8008-be693063f98f"><g class="fills" id="fills-b500948f-af59-8076-8008-be693063f98f"><rect rx="0" ry="0" x="7" y="10" transform="matrix(1.000000, 0.000000, 0.000000, 1.000000, 0.000000, 0.000000)" width="2" height="3" style="fill: rgb(61, 39, 73);"/></g></g><g id="shape-b500948f-af59-8076-8008-be6930641a3f"><g class="fills" id="fills-b500948f-af59-8076-8008-be6930641a3f"><rect rx="0" ry="0" x="11" y="10" transform="matrix(1.000000, 0.000000, 0.000000, 1.000000, 0.000000, 0.000000)" width="2" height="3" style="fill: rgb(61, 39, 73);"/></g></g><g id="shape-b500948f-af59-8076-8008-be6930641a40"><g class="fills" id="fills-b500948f-af59-8076-8008-be6930641a40"><rect rx="0" ry="0" x="15" y="10" transform="matrix(1.000000, 0.000000, 0.000000, 1.000000, 0.000000, 0.000000)" width="2" height="3" style="fill: rgb(61, 39, 73);"/></g></g></g></svg>
