<svg xmlns="http://www.w3.org/2000/svg" width="954" height="166.454768" viewBox="51.75 118.09291 954 166.454768">

    <defs>
      <linearGradient id="brandGradient" x1="30" y1="50" x2="275" y2="245" gradientUnits="userSpaceOnUse">
        <stop offset="0%" stop-color="#6C5CFF"/>
        <stop offset="48%" stop-color="#B44DFF"/>
        <stop offset="100%" stop-color="#FF58C7"/>
      </linearGradient>
      <linearGradient id="wordGradient" x1="0" y1="0" x2="170" y2="120" gradientUnits="userSpaceOnUse">
        <stop offset="0%" stop-color="#6C5CFF"/>
        <stop offset="55%" stop-color="#B44DFF"/>
        <stop offset="100%" stop-color="#FF58C7"/>
      </linearGradient>
      <filter id="softShadow" x="-30%" y="-30%" width="160%" height="160%">
        <feDropShadow dx="0" dy="8" stdDeviation="9" flood-color="#050817" flood-opacity="0.16"/>
      </filter>
    </defs>


    <g transform="translate(35 68) scale(0.89)" filter="url(#softShadow)">
      <path d="M 260.00,150.00 L 259.94,154.71 L 259.76,159.40 L 259.47,164.05 L 259.06,168.63 L 258.53,173.14 L 257.89,177.55 L 257.13,181.84 L 256.25,186.00 L 255.26,190.00 L 254.16,193.83 L 252.95,197.47 L 251.63,200.91 L 250.20,204.13 L 248.66,207.12 L 247.01,209.87 L 245.26,212.35 L 243.41,214.57 L 241.46,216.52 L 239.41,218.18 L 237.27,219.55 L 235.03,220.62 L 232.70,221.38 L 230.29,221.85 L 227.78,222.00 L 225.20,221.85 L 222.53,221.38 L 219.78,220.62 L 216.96,219.55 L 214.07,218.18 L 211.11,216.52 L 208.09,214.57 L 205.00,212.35 L 201.85,209.87 L 198.65,207.12 L 195.40,204.13 L 192.10,200.91 L 188.75,197.47 L 185.36,193.83 L 181.93,190.00 L 178.47,186.00 L 174.98,181.84 L 171.46,177.55 L 167.92,173.14 L 164.36,168.63 L 160.78,164.05 L 157.19,159.40 L 153.60,154.71 L 150.00,150.00 L 146.40,145.29 L 142.81,140.60 L 139.22,135.95 L 135.64,131.37 L 132.08,126.86 L 128.54,122.45 L 125.02,118.16 L 121.53,114.00 L 118.07,110.00 L 114.64,106.17 L 111.25,102.53 L 107.90,99.09 L 104.60,95.87 L 101.35,92.88 L 98.15,90.13 L 95.00,87.65 L 91.91,85.43 L 88.89,83.48 L 85.93,81.82 L 83.04,80.45 L 80.22,79.38 L 77.47,78.62 L 74.80,78.15 L 72.22,78.00 L 69.71,78.15 L 67.30,78.62 L 64.97,79.38 L 62.73,80.45 L 60.59,81.82 L 58.54,83.48 L 56.59,85.43 L 54.74,87.65 L 52.99,90.13 L 51.34,92.88 L 49.80,95.87 L 48.37,99.09 L 47.05,102.53 L 45.84,106.17 L 44.74,110.00 L 43.75,114.00 L 42.87,118.16 L 42.11,122.45 L 41.47,126.86 L 40.94,131.37 L 40.53,135.95 L 40.24,140.60 L 40.06,145.29 L 40.00,150.00 L 40.06,154.71 L 40.24,159.40 L 40.53,164.05 L 40.94,168.63 L 41.47,173.14 L 42.11,177.55 L 42.87,181.84 L 43.75,186.00 L 44.74,190.00 L 45.84,193.83 L 47.05,197.47 L 48.37,200.91 L 49.80,204.13 L 51.34,207.12 L 52.99,209.87 L 54.74,212.35 L 56.59,214.57 L 58.54,216.52 L 60.59,218.18 L 62.73,219.55 L 64.97,220.62 L 67.30,221.38 L 69.71,221.85 L 72.22,222.00 L 74.80,221.85 L 77.47,221.38 L 80.22,220.62 L 83.04,219.55 L 85.93,218.18 L 88.89,216.52 L 91.91,214.57 L 95.00,212.35 L 98.15,209.87 L 101.35,207.12 L 104.60,204.13 L 107.90,200.91 L 111.25,197.47 L 114.64,193.83 L 118.07,190.00 L 121.53,186.00 L 125.02,181.84 L 128.54,177.55 L 132.08,173.14 L 135.64,168.63 L 139.22,164.05 L 142.81,159.40 L 146.40,154.71 L 150.00,150.00 L 153.60,145.29 L 157.19,140.60 L 160.78,135.95 L 164.36,131.37 L 167.92,126.86 L 171.46,122.45 L 174.98,118.16 L 178.47,114.00 L 181.93,110.00 L 185.36,106.17 L 188.75,102.53 L 192.10,99.09 L 195.40,95.87 L 198.65,92.88 L 201.85,90.13 L 205.00,87.65 L 208.09,85.43 L 211.11,83.48 L 214.07,81.82 L 216.96,80.45 L 219.78,79.38 L 222.53,78.62 L 225.20,78.15 L 227.78,78.00 L 230.29,78.15 L 232.70,78.62 L 235.03,79.38 L 237.27,80.45 L 239.41,81.82 L 241.46,83.48 L 243.41,85.43 L 245.26,87.65 L 247.01,90.13 L 248.66,92.88 L 250.20,95.87 L 251.63,99.09 L 252.95,102.53 L 254.16,106.17 L 255.26,110.00 L 256.25,114.00 L 257.13,118.16 L 257.89,122.45 L 258.53,126.86 L 259.06,131.37 L 259.47,135.95 L 259.76,140.60 L 259.94,145.29 L 260.00,150.00" fill="none" stroke="#0E1422" stroke-width="42"
            stroke-linecap="round" stroke-linejoin="round"/>
      <path d="M 260.00,150.00 L 259.94,154.71 L 259.76,159.40 L 259.47,164.05 L 259.06,168.63 L 258.53,173.14 L 257.89,177.55 L 257.13,181.84 L 256.25,186.00 L 255.26,190.00 L 254.16,193.83 L 252.95,197.47 L 251.63,200.91 L 250.20,204.13 L 248.66,207.12 L 247.01,209.87 L 245.26,212.35 L 243.41,214.57 L 241.46,216.52 L 239.41,218.18 L 237.27,219.55 L 235.03,220.62 L 232.70,221.38 L 230.29,221.85 L 227.78,222.00 L 225.20,221.85 L 222.53,221.38 L 219.78,220.62 L 216.96,219.55 L 214.07,218.18 L 211.11,216.52 L 208.09,214.57 L 205.00,212.35 L 201.85,209.87 L 198.65,207.12 L 195.40,204.13 L 192.10,200.91 L 188.75,197.47 L 185.36,193.83 L 181.93,190.00 L 178.47,186.00 L 174.98,181.84 L 171.46,177.55 L 167.92,173.14 L 164.36,168.63 L 160.78,164.05 L 157.19,159.40 L 153.60,154.71 L 150.00,150.00 L 146.40,145.29 L 142.81,140.60 L 139.22,135.95 L 135.64,131.37 L 132.08,126.86 L 128.54,122.45 L 125.02,118.16 L 121.53,114.00 L 118.07,110.00 L 114.64,106.17 L 111.25,102.53 L 107.90,99.09 L 104.60,95.87 L 101.35,92.88 L 98.15,90.13 L 95.00,87.65 L 91.91,85.43 L 88.89,83.48 L 85.93,81.82 L 83.04,80.45 L 80.22,79.38 L 77.47,78.62 L 74.80,78.15 L 72.22,78.00 L 69.71,78.15 L 67.30,78.62 L 64.97,79.38 L 62.73,80.45 L 60.59,81.82 L 58.54,83.48 L 56.59,85.43 L 54.74,87.65 L 52.99,90.13 L 51.34,92.88 L 49.80,95.87 L 48.37,99.09 L 47.05,102.53 L 45.84,106.17 L 44.74,110.00 L 43.75,114.00 L 42.87,118.16 L 42.11,122.45 L 41.47,126.86 L 40.94,131.37 L 40.53,135.95 L 40.24,140.60 L 40.06,145.29 L 40.00,150.00 L 40.06,154.71 L 40.24,159.40 L 40.53,164.05 L 40.94,168.63 L 41.47,173.14 L 42.11,177.55 L 42.87,181.84 L 43.75,186.00 L 44.74,190.00 L 45.84,193.83 L 47.05,197.47 L 48.37,200.91 L 49.80,204.13 L 51.34,207.12 L 52.99,209.87 L 54.74,212.35 L 56.59,214.57 L 58.54,216.52 L 60.59,218.18 L 62.73,219.55 L 64.97,220.62 L 67.30,221.38 L 69.71,221.85 L 72.22,222.00 L 74.80,221.85 L 77.47,221.38 L 80.22,220.62 L 83.04,219.55 L 85.93,218.18 L 88.89,216.52 L 91.91,214.57 L 95.00,212.35 L 98.15,209.87 L 101.35,207.12 L 104.60,204.13 L 107.90,200.91 L 111.25,197.47 L 114.64,193.83 L 118.07,190.00 L 121.53,186.00 L 125.02,181.84 L 128.54,177.55 L 132.08,173.14 L 135.64,168.63 L 139.22,164.05 L 142.81,159.40 L 146.40,154.71 L 150.00,150.00 L 153.60,145.29 L 157.19,140.60 L 160.78,135.95 L 164.36,131.37 L 167.92,126.86 L 171.46,122.45 L 174.98,118.16 L 178.47,114.00 L 181.93,110.00 L 185.36,106.17 L 188.75,102.53 L 192.10,99.09 L 195.40,95.87 L 198.65,92.88 L 201.85,90.13 L 205.00,87.65 L 208.09,85.43 L 211.11,83.48 L 214.07,81.82 L 216.96,80.45 L 219.78,79.38 L 222.53,78.62 L 225.20,78.15 L 227.78,78.00 L 230.29,78.15 L 232.70,78.62 L 235.03,79.38 L 237.27,80.45 L 239.41,81.82 L 241.46,83.48 L 243.41,85.43 L 245.26,87.65 L 247.01,90.13 L 248.66,92.88 L 250.20,95.87 L 251.63,99.09 L 252.95,102.53 L 254.16,106.17 L 255.26,110.00 L 256.25,114.00 L 257.13,118.16 L 257.89,122.45 L 258.53,126.86 L 259.06,131.37 L 259.47,135.95 L 259.76,140.60 L 259.94,145.29 L 260.00,150.00" fill="none" stroke="url(#brandGradient)" stroke-width="30"
            stroke-linecap="round" stroke-linejoin="round"/>
      <circle cx="258" cy="122" r="15" fill="#FF58C7" stroke="#0E1422" stroke-width="6"/>
    </g>


    <g transform="translate(317 0)">
      <text x="0" y="224"
            font-family="Inter Display, Inter, Arial, sans-serif"
            font-size="142" font-weight="700" letter-spacing="-5.0">
        <tspan fill="#F7F9FF">Electron</tspan><tspan fill="url(#wordGradient)">2D</tspan>
      </text>
      <text x="0" y="284"
            font-family="Inter, Arial, sans-serif"
            font-size="24" font-weight="600" letter-spacing="1.605"
            fill="#AEB7C8">AGENT-NATIVE CROSS-PLATFORM 2D GAME ENGINE</text>
    </g>

    </svg>