<svg xmlns="http://www.w3.org/2000/svg" width="525" height="372.65625" viewBox="37.5 113.671875 525 372.65625">
      <defs>
        <linearGradient id="g" x1="80" y1="90" x2="520" y2="510" gradientUnits="userSpaceOnUse">
          <stop offset="0%" stop-color="#6C5CFF"/>
          <stop offset="48%" stop-color="#B44DFF"/>
          <stop offset="100%" stop-color="#FF58C7"/>
        </linearGradient>
      </defs>

      <path d="M 520.00,300.00 L 519.91,308.07 L 519.65,316.12 L 519.22,324.12 L 518.62,332.04 L 517.84,339.86 L 516.89,347.56 L 515.77,355.11 L 514.48,362.48 L 513.03,369.66 L 511.40,376.61 L 509.61,383.33 L 507.65,389.78 L 505.53,395.95 L 503.25,401.82 L 500.81,407.37 L 498.21,412.58 L 495.46,417.44 L 492.55,421.93 L 489.49,426.03 L 486.28,429.74 L 482.92,433.04 L 479.42,435.92 L 475.78,438.37 L 472.00,440.39 L 468.09,441.97 L 464.04,443.09 L 459.87,443.77 L 455.56,444.00 L 451.14,443.77 L 446.60,443.09 L 441.94,441.97 L 437.17,440.39 L 432.29,438.37 L 427.31,435.92 L 422.23,433.04 L 417.05,429.74 L 411.78,426.03 L 406.42,421.93 L 400.98,417.44 L 395.45,412.58 L 389.86,407.37 L 384.19,401.82 L 378.46,395.95 L 372.66,389.78 L 366.81,383.33 L 360.90,376.61 L 354.95,369.66 L 348.95,362.48 L 342.92,355.11 L 336.85,347.56 L 330.75,339.86 L 324.63,332.04 L 318.49,324.12 L 312.34,316.12 L 306.17,308.07 L 300.00,300.00 L 293.83,291.93 L 287.66,283.88 L 281.51,275.88 L 275.37,267.96 L 269.25,260.14 L 263.15,252.44 L 257.08,244.89 L 251.05,237.52 L 245.05,230.34 L 239.10,223.39 L 233.19,216.67 L 227.34,210.22 L 221.54,204.05 L 215.81,198.18 L 210.14,192.63 L 204.55,187.42 L 199.02,182.56 L 193.58,178.07 L 188.22,173.97 L 182.95,170.26 L 177.77,166.96 L 172.69,164.08 L 167.71,161.63 L 162.83,159.61 L 158.06,158.03 L 153.40,156.91 L 148.86,156.23 L 144.44,156.00 L 140.13,156.23 L 135.96,156.91 L 131.91,158.03 L 128.00,159.61 L 124.22,161.63 L 120.58,164.08 L 117.08,166.96 L 113.72,170.26 L 110.51,173.97 L 107.45,178.07 L 104.54,182.56 L 101.79,187.42 L 99.19,192.63 L 96.75,198.18 L 94.47,204.05 L 92.35,210.22 L 90.39,216.67 L 88.60,223.39 L 86.97,230.34 L 85.52,237.52 L 84.23,244.89 L 83.11,252.44 L 82.16,260.14 L 81.38,267.96 L 80.78,275.88 L 80.35,283.88 L 80.09,291.93 L 80.00,300.00 L 80.09,308.07 L 80.35,316.12 L 80.78,324.12 L 81.38,332.04 L 82.16,339.86 L 83.11,347.56 L 84.23,355.11 L 85.52,362.48 L 86.97,369.66 L 88.60,376.61 L 90.39,383.33 L 92.35,389.78 L 94.47,395.95 L 96.75,401.82 L 99.19,407.37 L 101.79,412.58 L 104.54,417.44 L 107.45,421.93 L 110.51,426.03 L 113.72,429.74 L 117.08,433.04 L 120.58,435.92 L 124.22,438.37 L 128.00,440.39 L 131.91,441.97 L 135.96,443.09 L 140.13,443.77 L 144.44,444.00 L 148.86,443.77 L 153.40,443.09 L 158.06,441.97 L 162.83,440.39 L 167.71,438.37 L 172.69,435.92 L 177.77,433.04 L 182.95,429.74 L 188.22,426.03 L 193.58,421.93 L 199.02,417.44 L 204.55,412.58 L 210.14,407.37 L 215.81,401.82 L 221.54,395.95 L 227.34,389.78 L 233.19,383.33 L 239.10,376.61 L 245.05,369.66 L 251.05,362.48 L 257.08,355.11 L 263.15,347.56 L 269.25,339.86 L 275.37,332.04 L 281.51,324.12 L 287.66,316.12 L 293.83,308.07 L 300.00,300.00 L 306.17,291.93 L 312.34,283.88 L 318.49,275.88 L 324.63,267.96 L 330.75,260.14 L 336.85,252.44 L 342.92,244.89 L 348.95,237.52 L 354.95,230.34 L 360.90,223.39 L 366.81,216.67 L 372.66,210.22 L 378.46,204.05 L 384.19,198.18 L 389.86,192.63 L 395.45,187.42 L 400.98,182.56 L 406.42,178.07 L 411.78,173.97 L 417.05,170.26 L 422.23,166.96 L 427.31,164.08 L 432.29,161.63 L 437.17,159.61 L 441.94,158.03 L 446.60,156.91 L 451.14,156.23 L 455.56,156.00 L 459.87,156.23 L 464.04,156.91 L 468.09,158.03 L 472.00,159.61 L 475.78,161.63 L 479.42,164.08 L 482.92,166.96 L 486.28,170.26 L 489.49,173.97 L 492.55,178.07 L 495.46,182.56 L 498.21,187.42 L 500.81,192.63 L 503.25,198.18 L 505.53,204.05 L 507.65,210.22 L 509.61,216.67 L 511.40,223.39 L 513.03,230.34 L 514.48,237.52 L 515.77,244.89 L 516.89,252.44 L 517.84,260.14 L 518.62,267.96 L 519.22,275.88 L 519.65,283.88 L 519.91,291.93 L 520.00,300.00" fill="none" stroke="#FFFFFF" stroke-width="84"
            stroke-linecap="round" stroke-linejoin="round"/>
      <path d="M 520.00,300.00 L 519.91,308.07 L 519.65,316.12 L 519.22,324.12 L 518.62,332.04 L 517.84,339.86 L 516.89,347.56 L 515.77,355.11 L 514.48,362.48 L 513.03,369.66 L 511.40,376.61 L 509.61,383.33 L 507.65,389.78 L 505.53,395.95 L 503.25,401.82 L 500.81,407.37 L 498.21,412.58 L 495.46,417.44 L 492.55,421.93 L 489.49,426.03 L 486.28,429.74 L 482.92,433.04 L 479.42,435.92 L 475.78,438.37 L 472.00,440.39 L 468.09,441.97 L 464.04,443.09 L 459.87,443.77 L 455.56,444.00 L 451.14,443.77 L 446.60,443.09 L 441.94,441.97 L 437.17,440.39 L 432.29,438.37 L 427.31,435.92 L 422.23,433.04 L 417.05,429.74 L 411.78,426.03 L 406.42,421.93 L 400.98,417.44 L 395.45,412.58 L 389.86,407.37 L 384.19,401.82 L 378.46,395.95 L 372.66,389.78 L 366.81,383.33 L 360.90,376.61 L 354.95,369.66 L 348.95,362.48 L 342.92,355.11 L 336.85,347.56 L 330.75,339.86 L 324.63,332.04 L 318.49,324.12 L 312.34,316.12 L 306.17,308.07 L 300.00,300.00 L 293.83,291.93 L 287.66,283.88 L 281.51,275.88 L 275.37,267.96 L 269.25,260.14 L 263.15,252.44 L 257.08,244.89 L 251.05,237.52 L 245.05,230.34 L 239.10,223.39 L 233.19,216.67 L 227.34,210.22 L 221.54,204.05 L 215.81,198.18 L 210.14,192.63 L 204.55,187.42 L 199.02,182.56 L 193.58,178.07 L 188.22,173.97 L 182.95,170.26 L 177.77,166.96 L 172.69,164.08 L 167.71,161.63 L 162.83,159.61 L 158.06,158.03 L 153.40,156.91 L 148.86,156.23 L 144.44,156.00 L 140.13,156.23 L 135.96,156.91 L 131.91,158.03 L 128.00,159.61 L 124.22,161.63 L 120.58,164.08 L 117.08,166.96 L 113.72,170.26 L 110.51,173.97 L 107.45,178.07 L 104.54,182.56 L 101.79,187.42 L 99.19,192.63 L 96.75,198.18 L 94.47,204.05 L 92.35,210.22 L 90.39,216.67 L 88.60,223.39 L 86.97,230.34 L 85.52,237.52 L 84.23,244.89 L 83.11,252.44 L 82.16,260.14 L 81.38,267.96 L 80.78,275.88 L 80.35,283.88 L 80.09,291.93 L 80.00,300.00 L 80.09,308.07 L 80.35,316.12 L 80.78,324.12 L 81.38,332.04 L 82.16,339.86 L 83.11,347.56 L 84.23,355.11 L 85.52,362.48 L 86.97,369.66 L 88.60,376.61 L 90.39,383.33 L 92.35,389.78 L 94.47,395.95 L 96.75,401.82 L 99.19,407.37 L 101.79,412.58 L 104.54,417.44 L 107.45,421.93 L 110.51,426.03 L 113.72,429.74 L 117.08,433.04 L 120.58,435.92 L 124.22,438.37 L 128.00,440.39 L 131.91,441.97 L 135.96,443.09 L 140.13,443.77 L 144.44,444.00 L 148.86,443.77 L 153.40,443.09 L 158.06,441.97 L 162.83,440.39 L 167.71,438.37 L 172.69,435.92 L 177.77,433.04 L 182.95,429.74 L 188.22,426.03 L 193.58,421.93 L 199.02,417.44 L 204.55,412.58 L 210.14,407.37 L 215.81,401.82 L 221.54,395.95 L 227.34,389.78 L 233.19,383.33 L 239.10,376.61 L 245.05,369.66 L 251.05,362.48 L 257.08,355.11 L 263.15,347.56 L 269.25,339.86 L 275.37,332.04 L 281.51,324.12 L 287.66,316.12 L 293.83,308.07 L 300.00,300.00 L 306.17,291.93 L 312.34,283.88 L 318.49,275.88 L 324.63,267.96 L 330.75,260.14 L 336.85,252.44 L 342.92,244.89 L 348.95,237.52 L 354.95,230.34 L 360.90,223.39 L 366.81,216.67 L 372.66,210.22 L 378.46,204.05 L 384.19,198.18 L 389.86,192.63 L 395.45,187.42 L 400.98,182.56 L 406.42,178.07 L 411.78,173.97 L 417.05,170.26 L 422.23,166.96 L 427.31,164.08 L 432.29,161.63 L 437.17,159.61 L 441.94,158.03 L 446.60,156.91 L 451.14,156.23 L 455.56,156.00 L 459.87,156.23 L 464.04,156.91 L 468.09,158.03 L 472.00,159.61 L 475.78,161.63 L 479.42,164.08 L 482.92,166.96 L 486.28,170.26 L 489.49,173.97 L 492.55,178.07 L 495.46,182.56 L 498.21,187.42 L 500.81,192.63 L 503.25,198.18 L 505.53,204.05 L 507.65,210.22 L 509.61,216.67 L 511.40,223.39 L 513.03,230.34 L 514.48,237.52 L 515.77,244.89 L 516.89,252.44 L 517.84,260.14 L 518.62,267.96 L 519.22,275.88 L 519.65,283.88 L 519.91,291.93 L 520.00,300.00" fill="none" stroke="url(#g)" stroke-width="60"
            stroke-linecap="round" stroke-linejoin="round"/>
      <circle cx="516" cy="244" r="30" fill="#FF58C7" stroke="#FFFFFF" stroke-width="12"/>
    </svg>