<svg xmlns="http://www.w3.org/2000/svg" width="1024" height="1024" viewBox="0 0 1024 1024">
      <defs>
        <linearGradient id="bg" x1="100" y1="80" x2="920" y2="950" gradientUnits="userSpaceOnUse">
          <stop offset="0%" stop-color="#171F33"/>
          <stop offset="100%" stop-color="#0A0F1C"/>
        </linearGradient>
        <linearGradient id="g" x1="145" y1="255" x2="885" y2="780" gradientUnits="userSpaceOnUse">
          <stop offset="0%" stop-color="#6C5CFF"/>
          <stop offset="50%" stop-color="#B44DFF"/>
          <stop offset="100%" stop-color="#FF58C7"/>
        </linearGradient>
        <filter id="shadow" x="-30%" y="-30%" width="160%" height="160%">
          <feDropShadow dx="0" dy="26" stdDeviation="28" flood-color="#000000" flood-opacity="0.32"/>
        </filter>
      </defs>
      <rect x="64" y="64" width="896" height="896" rx="220" fill="url(#bg)"/>
      <rect x="76" y="76" width="872" height="872" rx="208"
            fill="none" stroke="#FFFFFF" stroke-opacity="0.07" stroke-width="10"/>
      <g filter="url(#shadow)">
        <path d="M 847.00,512.00 L 846.87,524.34 L 846.47,536.63 L 845.81,548.85 L 844.89,560.95 L 843.71,572.90 L 842.27,584.66 L 840.56,596.19 L 838.60,607.45 L 836.38,618.42 L 833.91,629.05 L 831.18,639.31 L 828.20,649.17 L 824.97,658.60 L 821.50,667.56 L 817.78,676.04 L 813.82,684.00 L 809.63,691.42 L 805.20,698.28 L 800.54,704.55 L 795.65,710.21 L 790.54,715.25 L 785.21,719.65 L 779.67,723.40 L 773.91,726.48 L 767.95,728.89 L 761.79,730.62 L 755.43,731.65 L 748.88,732.00 L 742.14,731.65 L 735.23,730.62 L 728.13,728.89 L 720.87,726.48 L 713.44,723.40 L 705.85,719.65 L 698.12,715.25 L 690.23,710.21 L 682.21,704.55 L 674.05,698.28 L 665.76,691.42 L 657.35,684.00 L 648.83,676.04 L 640.20,667.56 L 631.47,658.60 L 622.64,649.17 L 613.73,639.31 L 604.74,629.05 L 595.68,618.42 L 586.54,607.45 L 577.36,596.19 L 568.11,584.66 L 558.83,572.90 L 549.51,560.95 L 540.16,548.85 L 530.78,536.63 L 521.40,524.34 L 512.00,512.00 L 502.60,499.66 L 493.22,487.37 L 483.84,475.15 L 474.49,463.05 L 465.17,451.10 L 455.89,439.34 L 446.64,427.81 L 437.46,416.55 L 428.32,405.58 L 419.26,394.95 L 410.27,384.69 L 401.36,374.83 L 392.53,365.40 L 383.80,356.44 L 375.17,347.96 L 366.65,340.00 L 358.24,332.58 L 349.95,325.72 L 341.79,319.45 L 333.77,313.79 L 325.88,308.75 L 318.15,304.35 L 310.56,300.60 L 303.13,297.52 L 295.87,295.11 L 288.77,293.38 L 281.86,292.35 L 275.12,292.00 L 268.57,292.35 L 262.21,293.38 L 256.05,295.11 L 250.09,297.52 L 244.33,300.60 L 238.79,304.35 L 233.46,308.75 L 228.35,313.79 L 223.46,319.45 L 218.80,325.72 L 214.37,332.58 L 210.18,340.00 L 206.22,347.96 L 202.50,356.44 L 199.03,365.40 L 195.80,374.83 L 192.82,384.69 L 190.09,394.95 L 187.62,405.58 L 185.40,416.55 L 183.44,427.81 L 181.73,439.34 L 180.29,451.10 L 179.11,463.05 L 178.19,475.15 L 177.53,487.37 L 177.13,499.66 L 177.00,512.00 L 177.13,524.34 L 177.53,536.63 L 178.19,548.85 L 179.11,560.95 L 180.29,572.90 L 181.73,584.66 L 183.44,596.19 L 185.40,607.45 L 187.62,618.42 L 190.09,629.05 L 192.82,639.31 L 195.80,649.17 L 199.03,658.60 L 202.50,667.56 L 206.22,676.04 L 210.18,684.00 L 214.37,691.42 L 218.80,698.28 L 223.46,704.55 L 228.35,710.21 L 233.46,715.25 L 238.79,719.65 L 244.33,723.40 L 250.09,726.48 L 256.05,728.89 L 262.21,730.62 L 268.57,731.65 L 275.12,732.00 L 281.86,731.65 L 288.77,730.62 L 295.87,728.89 L 303.13,726.48 L 310.56,723.40 L 318.15,719.65 L 325.88,715.25 L 333.77,710.21 L 341.79,704.55 L 349.95,698.28 L 358.24,691.42 L 366.65,684.00 L 375.17,676.04 L 383.80,667.56 L 392.53,658.60 L 401.36,649.17 L 410.27,639.31 L 419.26,629.05 L 428.32,618.42 L 437.46,607.45 L 446.64,596.19 L 455.89,584.66 L 465.17,572.90 L 474.49,560.95 L 483.84,548.85 L 493.22,536.63 L 502.60,524.34 L 512.00,512.00 L 521.40,499.66 L 530.78,487.37 L 540.16,475.15 L 549.51,463.05 L 558.83,451.10 L 568.11,439.34 L 577.36,427.81 L 586.54,416.55 L 595.68,405.58 L 604.74,394.95 L 613.73,384.69 L 622.64,374.83 L 631.47,365.40 L 640.20,356.44 L 648.83,347.96 L 657.35,340.00 L 665.76,332.58 L 674.05,325.72 L 682.21,319.45 L 690.23,313.79 L 698.12,308.75 L 705.85,304.35 L 713.44,300.60 L 720.87,297.52 L 728.13,295.11 L 735.23,293.38 L 742.14,292.35 L 748.88,292.00 L 755.43,292.35 L 761.79,293.38 L 767.95,295.11 L 773.91,297.52 L 779.67,300.60 L 785.21,304.35 L 790.54,308.75 L 795.65,313.79 L 800.54,319.45 L 805.20,325.72 L 809.63,332.58 L 813.82,340.00 L 817.78,347.96 L 821.50,356.44 L 824.97,365.40 L 828.20,374.83 L 831.18,384.69 L 833.91,394.95 L 836.38,405.58 L 838.60,416.55 L 840.56,427.81 L 842.27,439.34 L 843.71,451.10 L 844.89,463.05 L 845.81,475.15 L 846.47,487.37 L 846.87,499.66 L 847.00,512.00" fill="none" stroke="#090E19" stroke-width="150"
              stroke-linecap="round" stroke-linejoin="round"/>
        <path d="M 847.00,512.00 L 846.87,524.34 L 846.47,536.63 L 845.81,548.85 L 844.89,560.95 L 843.71,572.90 L 842.27,584.66 L 840.56,596.19 L 838.60,607.45 L 836.38,618.42 L 833.91,629.05 L 831.18,639.31 L 828.20,649.17 L 824.97,658.60 L 821.50,667.56 L 817.78,676.04 L 813.82,684.00 L 809.63,691.42 L 805.20,698.28 L 800.54,704.55 L 795.65,710.21 L 790.54,715.25 L 785.21,719.65 L 779.67,723.40 L 773.91,726.48 L 767.95,728.89 L 761.79,730.62 L 755.43,731.65 L 748.88,732.00 L 742.14,731.65 L 735.23,730.62 L 728.13,728.89 L 720.87,726.48 L 713.44,723.40 L 705.85,719.65 L 698.12,715.25 L 690.23,710.21 L 682.21,704.55 L 674.05,698.28 L 665.76,691.42 L 657.35,684.00 L 648.83,676.04 L 640.20,667.56 L 631.47,658.60 L 622.64,649.17 L 613.73,639.31 L 604.74,629.05 L 595.68,618.42 L 586.54,607.45 L 577.36,596.19 L 568.11,584.66 L 558.83,572.90 L 549.51,560.95 L 540.16,548.85 L 530.78,536.63 L 521.40,524.34 L 512.00,512.00 L 502.60,499.66 L 493.22,487.37 L 483.84,475.15 L 474.49,463.05 L 465.17,451.10 L 455.89,439.34 L 446.64,427.81 L 437.46,416.55 L 428.32,405.58 L 419.26,394.95 L 410.27,384.69 L 401.36,374.83 L 392.53,365.40 L 383.80,356.44 L 375.17,347.96 L 366.65,340.00 L 358.24,332.58 L 349.95,325.72 L 341.79,319.45 L 333.77,313.79 L 325.88,308.75 L 318.15,304.35 L 310.56,300.60 L 303.13,297.52 L 295.87,295.11 L 288.77,293.38 L 281.86,292.35 L 275.12,292.00 L 268.57,292.35 L 262.21,293.38 L 256.05,295.11 L 250.09,297.52 L 244.33,300.60 L 238.79,304.35 L 233.46,308.75 L 228.35,313.79 L 223.46,319.45 L 218.80,325.72 L 214.37,332.58 L 210.18,340.00 L 206.22,347.96 L 202.50,356.44 L 199.03,365.40 L 195.80,374.83 L 192.82,384.69 L 190.09,394.95 L 187.62,405.58 L 185.40,416.55 L 183.44,427.81 L 181.73,439.34 L 180.29,451.10 L 179.11,463.05 L 178.19,475.15 L 177.53,487.37 L 177.13,499.66 L 177.00,512.00 L 177.13,524.34 L 177.53,536.63 L 178.19,548.85 L 179.11,560.95 L 180.29,572.90 L 181.73,584.66 L 183.44,596.19 L 185.40,607.45 L 187.62,618.42 L 190.09,629.05 L 192.82,639.31 L 195.80,649.17 L 199.03,658.60 L 202.50,667.56 L 206.22,676.04 L 210.18,684.00 L 214.37,691.42 L 218.80,698.28 L 223.46,704.55 L 228.35,710.21 L 233.46,715.25 L 238.79,719.65 L 244.33,723.40 L 250.09,726.48 L 256.05,728.89 L 262.21,730.62 L 268.57,731.65 L 275.12,732.00 L 281.86,731.65 L 288.77,730.62 L 295.87,728.89 L 303.13,726.48 L 310.56,723.40 L 318.15,719.65 L 325.88,715.25 L 333.77,710.21 L 341.79,704.55 L 349.95,698.28 L 358.24,691.42 L 366.65,684.00 L 375.17,676.04 L 383.80,667.56 L 392.53,658.60 L 401.36,649.17 L 410.27,639.31 L 419.26,629.05 L 428.32,618.42 L 437.46,607.45 L 446.64,596.19 L 455.89,584.66 L 465.17,572.90 L 474.49,560.95 L 483.84,548.85 L 493.22,536.63 L 502.60,524.34 L 512.00,512.00 L 521.40,499.66 L 530.78,487.37 L 540.16,475.15 L 549.51,463.05 L 558.83,451.10 L 568.11,439.34 L 577.36,427.81 L 586.54,416.55 L 595.68,405.58 L 604.74,394.95 L 613.73,384.69 L 622.64,374.83 L 631.47,365.40 L 640.20,356.44 L 648.83,347.96 L 657.35,340.00 L 665.76,332.58 L 674.05,325.72 L 682.21,319.45 L 690.23,313.79 L 698.12,308.75 L 705.85,304.35 L 713.44,300.60 L 720.87,297.52 L 728.13,295.11 L 735.23,293.38 L 742.14,292.35 L 748.88,292.00 L 755.43,292.35 L 761.79,293.38 L 767.95,295.11 L 773.91,297.52 L 779.67,300.60 L 785.21,304.35 L 790.54,308.75 L 795.65,313.79 L 800.54,319.45 L 805.20,325.72 L 809.63,332.58 L 813.82,340.00 L 817.78,347.96 L 821.50,356.44 L 824.97,365.40 L 828.20,374.83 L 831.18,384.69 L 833.91,394.95 L 836.38,405.58 L 838.60,416.55 L 840.56,427.81 L 842.27,439.34 L 843.71,451.10 L 844.89,463.05 L 845.81,475.15 L 846.47,487.37 L 846.87,499.66 L 847.00,512.00" fill="none" stroke="url(#g)" stroke-width="112"
              stroke-linecap="round" stroke-linejoin="round"/>
        <circle cx="839" cy="425" r="58" fill="#FF58C7" stroke="#090E19" stroke-width="24"/>
      </g>
    </svg>