<?xml version="1.0" encoding="UTF-8" standalone="no"?>
<svg
   width="955"
   height="167"
   viewBox="161 236 955 167"
   version="1.1"
   id="svg10"
   xmlns="http://www.w3.org/2000/svg"
   xmlns:svg="http://www.w3.org/2000/svg">
  <defs
     id="defs6">
    <linearGradient
       id="brandGradient"
       x1="30"
       y1="50"
       x2="275"
       y2="245"
       gradientUnits="userSpaceOnUse">
      <stop
         offset="0%"
         stop-color="#6C5CFF"
         id="stop1" />
      <stop
         offset="48%"
         stop-color="#B44DFF"
         id="stop2" />
      <stop
         offset="100%"
         stop-color="#FF58C7"
         id="stop3" />
    </linearGradient>
    <linearGradient
       id="wordGradient"
       x1="0"
       y1="0"
       x2="170"
       y2="120"
       gradientUnits="userSpaceOnUse">
      <stop
         offset="0%"
         stop-color="#6C5CFF"
         id="stop4" />
      <stop
         offset="55%"
         stop-color="#B44DFF"
         id="stop5" />
      <stop
         offset="100%"
         stop-color="#FF58C7"
         id="stop6" />
    </linearGradient>
    <filter
       id="softShadow"
       x="-30%"
       y="-30%"
       width="160%"
       height="160%">
      <feDropShadow
         dx="0"
         dy="8"
         stdDeviation="9"
         flood-color="#050817"
         flood-opacity="0.16" />
    </filter>
  </defs>
  <g
     transform="translate(110 118)"
     id="g10">
    <g
       transform="translate(35 68) scale(0.89)"
       id="g7">
      <path
         d="M 260.00,150.00 L 259.94,154.71 L 259.76,159.40 L 259.47,164.05 L 259.06,168.63 L 258.53,173.14 L 257.89,177.55 L 257.13,181.84 L 256.25,186.00 L 255.26,190.00 L 254.16,193.83 L 252.95,197.47 L 251.63,200.91 L 250.20,204.13 L 248.66,207.12 L 247.01,209.87 L 245.26,212.35 L 243.41,214.57 L 241.46,216.52 L 239.41,218.18 L 237.27,219.55 L 235.03,220.62 L 232.70,221.38 L 230.29,221.85 L 227.78,222.00 L 225.20,221.85 L 222.53,221.38 L 219.78,220.62 L 216.96,219.55 L 214.07,218.18 L 211.11,216.52 L 208.09,214.57 L 205.00,212.35 L 201.85,209.87 L 198.65,207.12 L 195.40,204.13 L 192.10,200.91 L 188.75,197.47 L 185.36,193.83 L 181.93,190.00 L 178.47,186.00 L 174.98,181.84 L 171.46,177.55 L 167.92,173.14 L 164.36,168.63 L 160.78,164.05 L 157.19,159.40 L 153.60,154.71 L 150.00,150.00 L 146.40,145.29 L 142.81,140.60 L 139.22,135.95 L 135.64,131.37 L 132.08,126.86 L 128.54,122.45 L 125.02,118.16 L 121.53,114.00 L 118.07,110.00 L 114.64,106.17 L 111.25,102.53 L 107.90,99.09 L 104.60,95.87 L 101.35,92.88 L 98.15,90.13 L 95.00,87.65 L 91.91,85.43 L 88.89,83.48 L 85.93,81.82 L 83.04,80.45 L 80.22,79.38 L 77.47,78.62 L 74.80,78.15 L 72.22,78.00 L 69.71,78.15 L 67.30,78.62 L 64.97,79.38 L 62.73,80.45 L 60.59,81.82 L 58.54,83.48 L 56.59,85.43 L 54.74,87.65 L 52.99,90.13 L 51.34,92.88 L 49.80,95.87 L 48.37,99.09 L 47.05,102.53 L 45.84,106.17 L 44.74,110.00 L 43.75,114.00 L 42.87,118.16 L 42.11,122.45 L 41.47,126.86 L 40.94,131.37 L 40.53,135.95 L 40.24,140.60 L 40.06,145.29 L 40.00,150.00 L 40.06,154.71 L 40.24,159.40 L 40.53,164.05 L 40.94,168.63 L 41.47,173.14 L 42.11,177.55 L 42.87,181.84 L 43.75,186.00 L 44.74,190.00 L 45.84,193.83 L 47.05,197.47 L 48.37,200.91 L 49.80,204.13 L 51.34,207.12 L 52.99,209.87 L 54.74,212.35 L 56.59,214.57 L 58.54,216.52 L 60.59,218.18 L 62.73,219.55 L 64.97,220.62 L 67.30,221.38 L 69.71,221.85 L 72.22,222.00 L 74.80,221.85 L 77.47,221.38 L 80.22,220.62 L 83.04,219.55 L 85.93,218.18 L 88.89,216.52 L 91.91,214.57 L 95.00,212.35 L 98.15,209.87 L 101.35,207.12 L 104.60,204.13 L 107.90,200.91 L 111.25,197.47 L 114.64,193.83 L 118.07,190.00 L 121.53,186.00 L 125.02,181.84 L 128.54,177.55 L 132.08,173.14 L 135.64,168.63 L 139.22,164.05 L 142.81,159.40 L 146.40,154.71 L 150.00,150.00 L 153.60,145.29 L 157.19,140.60 L 160.78,135.95 L 164.36,131.37 L 167.92,126.86 L 171.46,122.45 L 174.98,118.16 L 178.47,114.00 L 181.93,110.00 L 185.36,106.17 L 188.75,102.53 L 192.10,99.09 L 195.40,95.87 L 198.65,92.88 L 201.85,90.13 L 205.00,87.65 L 208.09,85.43 L 211.11,83.48 L 214.07,81.82 L 216.96,80.45 L 219.78,79.38 L 222.53,78.62 L 225.20,78.15 L 227.78,78.00 L 230.29,78.15 L 232.70,78.62 L 235.03,79.38 L 237.27,80.45 L 239.41,81.82 L 241.46,83.48 L 243.41,85.43 L 245.26,87.65 L 247.01,90.13 L 248.66,92.88 L 250.20,95.87 L 251.63,99.09 L 252.95,102.53 L 254.16,106.17 L 255.26,110.00 L 256.25,114.00 L 257.13,118.16 L 257.89,122.45 L 258.53,126.86 L 259.06,131.37 L 259.47,135.95 L 259.76,140.60 L 259.94,145.29 L 260.00,150.00"
         fill="none"
         stroke="#0E1422"
         stroke-width="42"
         stroke-linecap="round"
         stroke-linejoin="round"
         id="path6" />
      <path
         d="M 260.00,150.00 L 259.94,154.71 L 259.76,159.40 L 259.47,164.05 L 259.06,168.63 L 258.53,173.14 L 257.89,177.55 L 257.13,181.84 L 256.25,186.00 L 255.26,190.00 L 254.16,193.83 L 252.95,197.47 L 251.63,200.91 L 250.20,204.13 L 248.66,207.12 L 247.01,209.87 L 245.26,212.35 L 243.41,214.57 L 241.46,216.52 L 239.41,218.18 L 237.27,219.55 L 235.03,220.62 L 232.70,221.38 L 230.29,221.85 L 227.78,222.00 L 225.20,221.85 L 222.53,221.38 L 219.78,220.62 L 216.96,219.55 L 214.07,218.18 L 211.11,216.52 L 208.09,214.57 L 205.00,212.35 L 201.85,209.87 L 198.65,207.12 L 195.40,204.13 L 192.10,200.91 L 188.75,197.47 L 185.36,193.83 L 181.93,190.00 L 178.47,186.00 L 174.98,181.84 L 171.46,177.55 L 167.92,173.14 L 164.36,168.63 L 160.78,164.05 L 157.19,159.40 L 153.60,154.71 L 150.00,150.00 L 146.40,145.29 L 142.81,140.60 L 139.22,135.95 L 135.64,131.37 L 132.08,126.86 L 128.54,122.45 L 125.02,118.16 L 121.53,114.00 L 118.07,110.00 L 114.64,106.17 L 111.25,102.53 L 107.90,99.09 L 104.60,95.87 L 101.35,92.88 L 98.15,90.13 L 95.00,87.65 L 91.91,85.43 L 88.89,83.48 L 85.93,81.82 L 83.04,80.45 L 80.22,79.38 L 77.47,78.62 L 74.80,78.15 L 72.22,78.00 L 69.71,78.15 L 67.30,78.62 L 64.97,79.38 L 62.73,80.45 L 60.59,81.82 L 58.54,83.48 L 56.59,85.43 L 54.74,87.65 L 52.99,90.13 L 51.34,92.88 L 49.80,95.87 L 48.37,99.09 L 47.05,102.53 L 45.84,106.17 L 44.74,110.00 L 43.75,114.00 L 42.87,118.16 L 42.11,122.45 L 41.47,126.86 L 40.94,131.37 L 40.53,135.95 L 40.24,140.60 L 40.06,145.29 L 40.00,150.00 L 40.06,154.71 L 40.24,159.40 L 40.53,164.05 L 40.94,168.63 L 41.47,173.14 L 42.11,177.55 L 42.87,181.84 L 43.75,186.00 L 44.74,190.00 L 45.84,193.83 L 47.05,197.47 L 48.37,200.91 L 49.80,204.13 L 51.34,207.12 L 52.99,209.87 L 54.74,212.35 L 56.59,214.57 L 58.54,216.52 L 60.59,218.18 L 62.73,219.55 L 64.97,220.62 L 67.30,221.38 L 69.71,221.85 L 72.22,222.00 L 74.80,221.85 L 77.47,221.38 L 80.22,220.62 L 83.04,219.55 L 85.93,218.18 L 88.89,216.52 L 91.91,214.57 L 95.00,212.35 L 98.15,209.87 L 101.35,207.12 L 104.60,204.13 L 107.90,200.91 L 111.25,197.47 L 114.64,193.83 L 118.07,190.00 L 121.53,186.00 L 125.02,181.84 L 128.54,177.55 L 132.08,173.14 L 135.64,168.63 L 139.22,164.05 L 142.81,159.40 L 146.40,154.71 L 150.00,150.00 L 153.60,145.29 L 157.19,140.60 L 160.78,135.95 L 164.36,131.37 L 167.92,126.86 L 171.46,122.45 L 174.98,118.16 L 178.47,114.00 L 181.93,110.00 L 185.36,106.17 L 188.75,102.53 L 192.10,99.09 L 195.40,95.87 L 198.65,92.88 L 201.85,90.13 L 205.00,87.65 L 208.09,85.43 L 211.11,83.48 L 214.07,81.82 L 216.96,80.45 L 219.78,79.38 L 222.53,78.62 L 225.20,78.15 L 227.78,78.00 L 230.29,78.15 L 232.70,78.62 L 235.03,79.38 L 237.27,80.45 L 239.41,81.82 L 241.46,83.48 L 243.41,85.43 L 245.26,87.65 L 247.01,90.13 L 248.66,92.88 L 250.20,95.87 L 251.63,99.09 L 252.95,102.53 L 254.16,106.17 L 255.26,110.00 L 256.25,114.00 L 257.13,118.16 L 257.89,122.45 L 258.53,126.86 L 259.06,131.37 L 259.47,135.95 L 259.76,140.60 L 259.94,145.29 L 260.00,150.00"
         fill="none"
         stroke="url(#brandGradient)"
         stroke-width="30"
         stroke-linecap="round"
         stroke-linejoin="round"
         id="path7" />
      <circle
         cx="258"
         cy="122"
         r="15"
         fill="#FF58C7"
         stroke="#0E1422"
         stroke-width="6"
         id="circle7" />
    </g>
    <g
       transform="translate(317 0)"
       id="g9">
      <g
         id="text8"
         style="font-weight:700;font-size:142px;font-family:'Inter Display', Inter, Arial, sans-serif;letter-spacing:-5"
         aria-label="Electron2D">
        <path
           style="fill:#f7f9ff"
           d="M 7.6962891,224 H 81.816406 V 205.69531 H 29.051758 v -24.96094 h 48.8125 v -17.81933 h -48.8125 v -23.9209 H 81.816406 V 120.68945 H 7.6962891 Z M 108.98828,120.68945 H 88.53418 V 224 h 20.4541 z m 42.8418,104.97461 c 17.75,0 31.89453,-10.12304 34.59863,-24.68359 h -18.65137 c -1.87207,5.68555 -7.34961,9.36035 -15.32324,9.36035 -10.74707,0 -16.9873,-7.00293 -17.33398,-17.81934 h 52.07129 v -5.47753 c 0,-22.32618 -14.49121,-37.92676 -36.05469,-37.92676 -21.00879,0 -35.91602,16.0166 -35.91602,38.34277 0,22.25684 14.42188,38.2041 36.60938,38.2041 z m -16.57129,-46.17773 c 1.10937,-9.15235 7.1416,-14.83789 16.29394,-14.83789 9.22168,0 15.32325,5.68554 16.36329,14.83789 z m 91.44629,46.17773 c 19.4834,0 33.48926,-12.27246 34.39062,-29.19043 h -19.89941 c -1.31738,7.69629 -5.96289,12.68848 -14.21387,12.68848 -10.26172,0 -16.43262,-8.38965 -16.43262,-21.70215 0,-13.38184 6.10157,-21.84082 16.43262,-21.84082 8.18164,0 13.3125,5.06152 14.35254,12.54981 h 19.76074 c -1.31738,-17.05665 -15.11523,-29.05176 -34.39062,-29.05176 -21.97949,0 -36.74805,15.66992 -36.74805,38.34277 0,22.67285 14.69922,38.2041 36.74805,38.2041 z m 82.36328,-74.88281 H 294.0918 V 130.8125 h -20.4541 v 19.96875 h -12.61915 v 16.0166 h 12.61915 v 37.78809 c 0,13.3125 7.41894,19.41406 23.50488,19.41406 h 11.92578 v -16.0166 h -7.83496 c -5.54688,0 -7.1416,-1.59473 -7.1416,-6.58692 v -34.59863 h 14.97656 z M 314.33008,224 h 20.4541 v -39.66016 c 0,-11.02441 6.1709,-16.84863 14.56055,-16.84863 3.46679,0 7.28027,0.27734 8.80566,0.34668 v -17.40332 c -1.66406,-0.0693 -3.6748,-0.13867 -6.03223,-0.13867 -9.63769,0 -15.18457,4.16015 -17.88867,12.96582 h -0.20801 v -12.48047 h -19.6914 z m 81.32324,1.66406 c 22.25684,0 37.2334,-15.2539 37.2334,-38.2041 0,-22.95019 -14.97656,-38.34277 -37.2334,-38.34277 -22.1875,0 -37.16406,15.39258 -37.16406,38.34277 0,22.9502 14.97656,38.2041 37.16406,38.2041 z m 0,-16.57129 c -9.91504,0 -16.57129,-8.04297 -16.57129,-21.63281 0,-13.65918 6.72559,-21.77148 16.57129,-21.77148 9.91504,0 16.64063,8.1123 16.64063,21.77148 0,13.58984 -6.65625,21.63281 -16.64063,21.63281 z m 63.91992,-25.79297 c 0,-11.37109 5.89356,-16.43261 14.35254,-16.43261 8.52832,0 13.45117,5.20019 13.45117,15.0459 V 224 h 20.38477 v -45.83105 c 0,-18.5127 -10.05371,-28.91309 -25.6543,-28.91309 -10.53906,0 -17.95801,4.71484 -22.88086,13.03516 V 150.78125 H 439.11914 V 224 h 20.4541 z"
           id="path10" />
        <path
           style="fill:url(#wordGradient)"
           d="m 515.58887,224 h 74.05078 v -17.12598 h -45.20703 v -0.13867 l 21.91015,-19.06738 c 14.42188,-12.3418 22.81153,-21.97949 22.81153,-36.4707 0,-19.55274 -15.25391,-32.17188 -36.47071,-32.17188 -22.95019,0 -37.51074,14.69922 -37.51074,37.16406 h 19.62207 c 0,-12.5498 6.79492,-20.10742 17.88867,-20.10742 10.12305,0 16.64063,6.37891 16.64063,16.22461 0,9.70703 -6.72559,15.60059 -15.87793,23.64356 l -37.85742,32.37988 z m 118.62597,0 c 31.68653,0 51.03125,-19.89941 51.03125,-51.72461 0,-31.68652 -19.55273,-51.58594 -50.61523,-51.58594 H 597.74414 V 224 Z m -15.11523,-17.95801 v -67.39453 h 14.21387 c 20.52343,0 30.43847,11.92578 30.43847,33.62793 0,21.77148 -9.77636,33.7666 -30.64648,33.7666 z"
           id="path11" />
      </g>
      <path
         d="m 0.5859375,284 h 3.421875 L 5.4375,279.67578 h 6.527344 L 13.453125,284 h 3.433594 L 10.652344,266.53906 H 6.6796875 Z m 5.6835937,-6.84375 0.7382813,-2.22656 c 0.4804687,-1.5586 1.0078125,-3.51563 1.6289063,-5.95313 0.6445312,2.41406 1.1953125,4.34766 1.7109372,5.95313 l 0.761719,2.22656 z m 21.1401558,7.07812 c 4.3125,0 7.40625,-2.77734 7.40625,-7.26562 v -2.09766 h -7.066406 v 2.46094 h 4.03125 c -0.05859,2.50781 -1.734375,4.10156 -4.359375,4.10156 -2.941406,0 -4.957031,-2.21484 -4.957031,-6.16406 0,-3.96094 2.0625,-6.16406 4.886718,-6.16406 2.121094,0 3.550782,1.14844 4.113282,3.01172 h 3.199218 c -0.539062,-3.4336 -3.503906,-5.8125 -7.347656,-5.8125 -4.570312,0 -7.992187,3.36328 -7.992187,8.98828 0,5.51953 3.269531,8.9414 8.085937,8.9414 z M 39.456093,284 h 11.390625 v -2.63672 h -8.261719 v -4.875 h 7.605469 v -2.60156 h -7.605469 v -4.71094 h 8.214844 v -2.63672 h -11.34375 z m 16.136249,0 h 3.1875 v -8.67188 c 0,-0.97265 -0.105468,-2.8125 -0.222656,-4.96875 1.171875,2.27344 1.828125,3.51563 2.742188,4.98047 L 66.748592,284 h 3.550782 v -17.46094 h -3.175782 v 9.16406 c 0,1.06641 0.07031,2.83594 0.1875,4.52344 -0.761718,-1.74609 -1.523437,-3.07031 -2.144531,-4.0664 l -6.035156,-9.6211 h -3.539063 z m 19.0425,-14.82422 h 5.390625 V 284 h 3.128906 v -14.82422 h 5.378906 v -2.63672 H 74.634842 Z m 24.562035,4.85156 h -7.851563 v 2.51953 h 7.851563 z M 104.22375,284 h 3.1875 v -8.67188 c 0,-0.97265 -0.10547,-2.8125 -0.22266,-4.96875 1.17188,2.27344 1.82813,3.51563 2.74219,4.98047 L 115.38,284 h 3.55078 V 266.53906 H 115.755 v 9.16406 c 0,1.06641 0.0703,2.83594 0.1875,4.52344 -0.76172,-1.74609 -1.52344,-3.07031 -2.14453,-4.0664 l -6.03516,-9.6211 h -3.53906 z m 18.65578,0 h 3.42188 l 1.42968,-4.32422 h 6.52735 L 135.74672,284 h 3.43359 l -6.23437,-17.46094 h -3.97266 z m 5.6836,-6.84375 0.73828,-2.22656 c 0.48047,-1.5586 1.00781,-3.51563 1.6289,-5.95313 0.64453,2.41406 1.19532,4.34766 1.71094,5.95313 l 0.76172,2.22656 z m 11.6714,-7.98047 h 5.39062 V 284 h 3.12891 v -14.82422 h 5.37891 v -2.63672 h -13.89844 z m 21.36282,-2.63672 h -3.12891 V 284 h 3.12891 z M 171.76875,284 h 3.96094 l 6.11719,-17.46094 H 178.425 l -3,9.07031 c -0.49218,1.5586 -1.01953,3.46875 -1.65234,5.89454 -0.64453,-2.40235 -1.20703,-4.34766 -1.69922,-5.89454 l -3.09375,-9.07031 h -3.43359 z m 14.01516,0 h 11.39062 v -2.63672 h -8.26172 v -4.875 h 7.60547 v -2.60156 h -7.60547 v -4.71094 h 8.21485 v -2.63672 h -11.34375 z m 31.22953,0.23437 c 4.125,0 6.89063,-2.70703 7.3711,-6.04687 h -3.16407 c -0.39843,2.0625 -2.08593,3.24609 -4.17187,3.24609 -2.83594,0 -4.88672,-2.14453 -4.88672,-6.15234 0,-3.96094 2.03906,-6.17578 4.89844,-6.17578 2.08594,0 3.77344,1.18359 4.16015,3.24609 h 3.15235 c -0.55078,-3.82031 -3.52735,-6.04687 -7.35938,-6.04687 -4.55859,0 -7.99218,3.32812 -7.99218,8.97656 0,5.625 3.39843,8.95312 7.99218,8.95312 z M 228.86063,284 h 3.1289 v -6.41016 h 3.25781 L 238.68094,284 h 3.5039 l -3.78515,-6.9375 c 2.0625,-0.82031 3.14062,-2.56641 3.14062,-4.93359 0,-3.32813 -2.13281,-5.58985 -6.15234,-5.58985 h -6.52734 z m 3.1289,-9 v -5.83594 h 2.91797 c 2.37891,0 3.43359,1.10156 3.43359,2.96485 0,1.85156 -1.05468,2.87109 -3.41015,2.87109 z m 21.6089,9.23437 c 4.57032,0 8.00391,-3.3164 8.00391,-8.95312 0,-5.64844 -3.43359,-8.97656 -8.00391,-8.97656 -4.58203,0 -8.02734,3.32812 -8.02734,8.97656 0,5.625 3.44531,8.95312 8.02734,8.95312 z m 0,-2.80078 c -2.85937,0 -4.88671,-2.17968 -4.88671,-6.15234 0,-3.99609 2.02734,-6.17578 4.88671,-6.17578 2.83594,0 4.85157,2.16797 4.85157,6.17578 0,3.98437 -2.01563,6.15234 -4.85157,6.15234 z m 18.70266,2.83594 c 4.17187,0 6.60937,-2.09766 6.60937,-5.16797 0,-3.04687 -2.54297,-4.39453 -5.13281,-5.01562 l -1.62891,-0.42188 c -1.41797,-0.35156 -2.97656,-0.9375 -2.97656,-2.40234 0,-1.32422 1.19531,-2.29688 3.16406,-2.29688 1.88672,0 3.15235,0.86719 3.30469,2.35547 h 3.03516 c -0.082,-2.91797 -2.56641,-5.01562 -6.29297,-5.01562 -3.65625,0 -6.375,2.0625 -6.375,5.14453 0,2.46094 1.72265,3.9375 4.64062,4.6875 l 1.98047,0.51562 c 1.88672,0.49219 3.15235,1.06641 3.15235,2.42578 0,1.5 -1.44141,2.51954 -3.50391,2.51954 -1.96875,0 -3.52734,-0.89063 -3.66797,-2.73047 h -3.08203 c 0.14062,3.44531 2.70703,5.40234 6.77344,5.40234 z m 17.21438,0 c 4.17188,0 6.60938,-2.09766 6.60938,-5.16797 0,-3.04687 -2.54297,-4.39453 -5.13282,-5.01562 l -1.6289,-0.42188 c -1.41797,-0.35156 -2.97656,-0.9375 -2.97656,-2.40234 0,-1.32422 1.19531,-2.29688 3.16406,-2.29688 1.88672,0 3.15234,0.86719 3.30469,2.35547 h 3.03515 c -0.082,-2.91797 -2.5664,-5.01562 -6.29297,-5.01562 -3.65625,0 -6.375,2.0625 -6.375,5.14453 0,2.46094 1.72266,3.9375 4.64063,4.6875 l 1.98047,0.51562 c 1.88672,0.49219 3.15234,1.06641 3.15234,2.42578 0,1.5 -1.44141,2.51954 -3.50391,2.51954 -1.96875,0 -3.52734,-0.89063 -3.66796,-2.73047 h -3.08204 c 0.14063,3.44531 2.70704,5.40234 6.77344,5.40234 z m 18.83158,-10.24219 h -7.85157 v 2.51953 h 7.85157 z M 313.3739,284 h 3.12891 v -5.90625 h 3.35156 c 4.03125,0 6.19922,-2.42578 6.19922,-5.77734 0,-3.32813 -2.13281,-5.77735 -6.15234,-5.77735 h -6.52735 z m 3.12891,-8.48438 v -6.35156 h 2.91797 c 2.39062,0 3.43359,1.28906 3.43359,3.15235 0,1.86328 -1.04297,3.19921 -3.41016,3.19921 z M 330.45938,284 h 10.83984 v -2.63672 h -7.71093 v -14.82422 h -3.12891 z m 14.00342,0 h 3.42187 l 1.42969,-4.32422 h 6.52735 L 357.32999,284 h 3.43359 l -6.23437,-17.46094 h -3.97266 z m 5.68359,-6.84375 0.73828,-2.22656 c 0.48047,-1.5586 1.00782,-3.51563 1.62891,-5.95313 0.64453,2.41406 1.19531,4.34766 1.71094,5.95313 l 0.76172,2.22656 z m 11.67142,-7.98047 h 5.39063 V 284 h 3.1289 v -14.82422 h 5.37891 v -2.63672 H 361.81781 Z M 380.05173,284 h 3.1289 v -6.98438 h 7.26563 v -2.60156 h -7.26563 v -5.23828 h 8.05078 v -2.63672 h -11.17968 z m 23.19092,0.23437 c 4.57031,0 8.0039,-3.3164 8.0039,-8.95312 0,-5.64844 -3.43359,-8.97656 -8.0039,-8.97656 -4.58204,0 -8.02735,3.32812 -8.02735,8.97656 0,5.625 3.44531,8.95312 8.02735,8.95312 z m 0,-2.80078 c -2.85938,0 -4.88672,-2.17968 -4.88672,-6.15234 0,-3.99609 2.02734,-6.17578 4.88672,-6.17578 2.83593,0 4.85156,2.16797 4.85156,6.17578 0,3.98437 -2.01563,6.15234 -4.85156,6.15234 z M 415.81641,284 h 3.1289 v -6.41016 h 3.25781 L 425.63672,284 h 3.5039 l -3.78515,-6.9375 c 2.0625,-0.82031 3.14062,-2.56641 3.14062,-4.93359 0,-3.32813 -2.13281,-5.58985 -6.15234,-5.58985 h -6.52734 z m 3.1289,-9 v -5.83594 h 2.91797 c 2.37891,0 3.43359,1.10156 3.43359,2.96485 0,1.85156 -1.05468,2.87109 -3.41015,2.87109 z m 14.13236,9 h 3.07031 v -8.8125 c 0,-1.32422 -0.0703,-3.73828 -0.11719,-5.71875 0.64453,2.25 1.34766,4.58203 1.75781,5.71875 L 441.05814,284 h 2.66015 l 3.22266,-8.8125 c 0.41015,-1.17188 1.14844,-3.57422 1.74609,-5.8125 -0.0352,2.07422 -0.10547,4.51172 -0.10547,5.8125 V 284 h 3.11719 v -17.46094 h -4.72266 l -3.28125,9.01172 c -0.33984,1.04297 -0.8789,3.19922 -1.28906,4.92188 -0.39844,-1.7461 -0.94922,-3.89063 -1.30078,-4.92188 l -3.31641,-9.01172 h -4.71093 z m 31.20608,0 h 11.94141 v -2.61328 h -7.60547 v -0.12891 l 3.03516,-3.09375 c 3.41015,-3.29297 4.3125,-4.86328 4.3125,-6.79687 0,-2.91797 -2.36719,-5.0625 -5.8711,-5.0625 -3.45703,0 -5.90625,2.15625 -5.90625,5.46093 h 2.98828 c 0,-1.79296 1.125,-2.90625 2.88282,-2.90625 1.65234,0 2.89453,1.01954 2.89453,2.66016 0,1.47656 -0.91407,2.53125 -2.61328,4.26563 l -6.0586,5.96484 z m 22.65189,0 c 5.32031,0 8.44922,-3.29297 8.44922,-8.75391 0,-5.42578 -3.12891,-8.70703 -8.33203,-8.70703 h -6.02344 V 284 Z m -2.77735,-2.70703 v -12.04688 h 2.70704 c 3.57421,0 5.4375,2.00391 5.4375,6 0,4.03125 -1.86329,6.04688 -5.51954,6.04688 z m 30.99515,2.9414 c 4.3125,0 7.40625,-2.77734 7.40625,-7.26562 v -2.09766 h -7.0664 v 2.46094 h 4.03125 c -0.0586,2.50781 -1.73438,4.10156 -4.35938,4.10156 -2.94141,0 -4.95703,-2.21484 -4.95703,-6.16406 0,-3.96094 2.0625,-6.16406 4.88672,-6.16406 2.12109,0 3.55078,1.14844 4.11328,3.01172 h 3.19922 c -0.53906,-3.4336 -3.50391,-5.8125 -7.34766,-5.8125 -4.57031,0 -7.99219,3.36328 -7.99219,8.98828 0,5.51953 3.26954,8.9414 8.08594,8.9414 z M 525.34827,284 h 3.42187 l 1.42969,-4.32422 h 6.52734 L 538.21545,284 h 3.4336 l -6.23438,-17.46094 h -3.97265 z m 5.68359,-6.84375 0.73828,-2.22656 c 0.48047,-1.5586 1.00781,-3.51563 1.62891,-5.95313 0.64453,2.41406 1.19531,4.34766 1.71094,5.95313 l 0.76171,2.22656 z M 545.58612,284 h 3.07031 v -8.8125 c 0,-1.32422 -0.0703,-3.73828 -0.11718,-5.71875 0.64453,2.25 1.34765,4.58203 1.75781,5.71875 L 553.56659,284 h 2.66016 l 3.22265,-8.8125 c 0.41016,-1.17188 1.14844,-3.57422 1.7461,-5.8125 -0.0352,2.07422 -0.10547,4.51172 -0.10547,5.8125 V 284 h 3.11718 v -17.46094 h -4.72265 l -3.28125,9.01172 c -0.33985,1.04297 -0.87891,3.19922 -1.28906,4.92188 -0.39844,-1.7461 -0.94922,-3.89063 -1.30079,-4.92188 l -3.3164,-9.01172 h -4.71094 z m 23.7417,0 h 11.39062 v -2.63672 h -8.26171 v -4.875 h 7.60546 v -2.60156 h -7.60546 v -4.71094 h 8.21484 v -2.63672 h -11.34375 z m 23.78815,0 h 11.39062 v -2.63672 h -8.26172 v -4.875 h 7.60547 v -2.60156 h -7.60547 v -4.71094 h 8.21485 v -2.63672 h -11.34375 z m 16.13623,0 h 3.1875 v -8.67188 c 0,-0.97265 -0.10547,-2.8125 -0.22266,-4.96875 1.17188,2.27344 1.82813,3.51563 2.74219,4.98047 L 620.40845,284 h 3.55078 v -17.46094 h -3.17578 v 9.16406 c 0,1.06641 0.0703,2.83594 0.1875,4.52344 -0.76172,-1.74609 -1.52344,-3.07031 -2.14453,-4.0664 l -6.03516,-9.6211 h -3.53906 z m 27.36279,0.23437 c 4.3125,0 7.40625,-2.77734 7.40625,-7.26562 v -2.09766 h -7.06641 v 2.46094 h 4.03125 c -0.0586,2.50781 -1.73437,4.10156 -4.35937,4.10156 -2.94141,0 -4.95703,-2.21484 -4.95703,-6.16406 0,-3.96094 2.0625,-6.16406 4.88672,-6.16406 2.12109,0 3.55078,1.14844 4.11328,3.01172 h 3.19922 c -0.53907,-3.4336 -3.50391,-5.8125 -7.34766,-5.8125 -4.57031,0 -7.99219,3.36328 -7.99219,8.98828 0,5.51953 3.26953,8.9414 8.08594,8.9414 z m 15.17529,-17.69531 h -3.1289 V 284 h 3.1289 z M 656.91095,284 h 3.1875 v -8.67188 c 0,-0.97265 -0.10547,-2.8125 -0.22266,-4.96875 1.17188,2.27344 1.82813,3.51563 2.74219,4.98047 L 668.0672,284 h 3.55078 v -17.46094 h -3.17578 v 9.16406 c 0,1.06641 0.0703,2.83594 0.1875,4.52344 -0.76172,-1.74609 -1.52344,-3.07031 -2.14453,-4.0664 l -6.03516,-9.6211 h -3.53906 z m 19.82764,0 h 11.39062 v -2.63672 h -8.26172 v -4.875 h 7.60547 v -2.60156 h -7.60547 v -4.71094 h 8.21485 v -2.63672 h -11.34375 z"
         id="text9"
         style="font-weight:600;font-size:24px;font-family:Inter, Arial, sans-serif;letter-spacing:1.605;fill:#aeb7c8"
         aria-label="AGENT-NATIVE CROSS-PLATFORM 2D GAME ENGINE" />
    </g>
  </g>
</svg>
